<svg xmlns="http://www.w3.org/2000/svg" xmlns:xlink="http://www.w3.org/1999/xlink" width="886.16" height="562.242" version="1.1" viewBox="0 0 664.62 421.682"><metadata><rdf:RDF xmlns:cc="http://creativecommons.org/ns#" xmlns:dc="http://purl.org/dc/elements/1.1/" xmlns:rdf="http://www.w3.org/1999/02/22-rdf-syntax-ns#"><cc:Work><dc:type rdf:resource="http://purl.org/dc/dcmitype/StillImage"/><dc:date>2021-04-10T20:00:41.106567</dc:date><dc:format>image/svg+xml</dc:format><dc:creator><cc:Agent><dc:title>Matplotlib v3.3.4, https://matplotlib.org/</dc:title></cc:Agent></dc:creator></cc:Work></rdf:RDF></metadata><defs><style type="text/css">*{stroke-linecap:butt;stroke-linejoin:round}</style></defs><g id="figure_1"><g id="patch_1"><path d="M 0 421.681875 L 664.62 421.681875 L 664.62 0 L 0 0 z" style="fill:#fff"/></g><g id="axes_1"><g id="patch_2"><path d="M 46.31125 299.518125 L 604.31125 299.518125 L 604.31125 22.318125 L 46.31125 22.318125 z" style="fill:#fff"/></g><g id="matplotlib.axis_1"><g id="xtick_1"><g id="line2d_1"><path d="M 79.856705 299.518125 L 79.856705 22.318125" clip-path="url(#p348d1728ed)" style="fill:none;stroke:silver;stroke-linecap:round;stroke-width:.5"/></g><g id="text_1"><g style="fill:#262626" transform="translate(72.857955 317.376406)scale(0.11 -0.11)"><defs><path id="DejaVuSans-49" d="M 12.40625 8.296875 L 28.515625 8.296875 L 28.515625 63.921875 L 10.984375 60.40625 L 10.984375 69.390625 L 28.421875 72.90625 L 38.28125 72.90625 L 38.28125 8.296875 L 54.390625 8.296875 L 54.390625 0 L 12.40625 0 z"/><path id="DejaVuSans-54" d="M 33.015625 40.375 Q 26.375 40.375 22.484375 35.828125 Q 18.609375 31.296875 18.609375 23.390625 Q 18.609375 15.53125 22.484375 10.953125 Q 26.375 6.390625 33.015625 6.390625 Q 39.65625 6.390625 43.53125 10.953125 Q 47.40625 15.53125 47.40625 23.390625 Q 47.40625 31.296875 43.53125 35.828125 Q 39.65625 40.375 33.015625 40.375 z M 52.59375 71.296875 L 52.59375 62.3125 Q 48.875 64.0625 45.09375 64.984375 Q 41.3125 65.921875 37.59375 65.921875 Q 27.828125 65.921875 22.671875 59.328125 Q 17.53125 52.734375 16.796875 39.40625 Q 19.671875 43.65625 24.015625 45.921875 Q 28.375 48.1875 33.59375 48.1875 Q 44.578125 48.1875 50.953125 41.515625 Q 57.328125 34.859375 57.328125 23.390625 Q 57.328125 12.15625 50.6875 5.359375 Q 44.046875 -1.421875 33.015625 -1.421875 Q 20.359375 -1.421875 13.671875 8.265625 Q 6.984375 17.96875 6.984375 36.375 Q 6.984375 53.65625 15.1875 63.9375 Q 23.390625 74.21875 37.203125 74.21875 Q 40.921875 74.21875 44.703125 73.484375 Q 48.484375 72.75 52.59375 71.296875 z"/></defs><use xlink:href="#DejaVuSans-49"/><use x="63.623" xlink:href="#DejaVuSans-54"/></g></g></g><g id="xtick_2"><g id="line2d_2"><path d="M 112.583977 299.518125 L 112.583977 22.318125" clip-path="url(#p348d1728ed)" style="fill:none;stroke:silver;stroke-linecap:round;stroke-width:.5"/></g><g id="text_2"><g style="fill:#262626" transform="translate(105.585227 317.376406)scale(0.11 -0.11)"><defs><path id="DejaVuSans-51" d="M 40.578125 39.3125 Q 47.65625 37.796875 51.625 33 Q 55.609375 28.21875 55.609375 21.1875 Q 55.609375 10.40625 48.1875 4.484375 Q 40.765625 -1.421875 27.09375 -1.421875 Q 22.515625 -1.421875 17.65625 -0.515625 Q 12.796875 0.390625 7.625 2.203125 L 7.625 11.71875 Q 11.71875 9.328125 16.59375 8.109375 Q 21.484375 6.890625 26.8125 6.890625 Q 36.078125 6.890625 40.9375 10.546875 Q 45.796875 14.203125 45.796875 21.1875 Q 45.796875 27.640625 41.28125 31.265625 Q 36.765625 34.90625 28.71875 34.90625 L 20.21875 34.90625 L 20.21875 43.015625 L 29.109375 43.015625 Q 36.375 43.015625 40.234375 45.921875 Q 44.09375 48.828125 44.09375 54.296875 Q 44.09375 59.90625 40.109375 62.90625 Q 36.140625 65.921875 28.71875 65.921875 Q 24.65625 65.921875 20.015625 65.03125 Q 15.375 64.15625 9.8125 62.3125 L 9.8125 71.09375 Q 15.4375 72.65625 20.34375 73.4375 Q 25.25 74.21875 29.59375 74.21875 Q 40.828125 74.21875 47.359375 69.109375 Q 53.90625 64.015625 53.90625 55.328125 Q 53.90625 49.265625 50.4375 45.09375 Q 46.96875 40.921875 40.578125 39.3125 z"/><path id="DejaVuSans-50" d="M 19.1875 8.296875 L 53.609375 8.296875 L 53.609375 0 L 7.328125 0 L 7.328125 8.296875 Q 12.9375 14.109375 22.625 23.890625 Q 32.328125 33.6875 34.8125 36.53125 Q 39.546875 41.84375 41.421875 45.53125 Q 43.3125 49.21875 43.3125 52.78125 Q 43.3125 58.59375 39.234375 62.25 Q 35.15625 65.921875 28.609375 65.921875 Q 23.96875 65.921875 18.8125 64.3125 Q 13.671875 62.703125 7.8125 59.421875 L 7.8125 69.390625 Q 13.765625 71.78125 18.9375 73 Q 24.125 74.21875 28.421875 74.21875 Q 39.75 74.21875 46.484375 68.546875 Q 53.21875 62.890625 53.21875 53.421875 Q 53.21875 48.921875 51.53125 44.890625 Q 49.859375 40.875 45.40625 35.40625 Q 44.1875 33.984375 37.640625 27.21875 Q 31.109375 20.453125 19.1875 8.296875 z"/></defs><use xlink:href="#DejaVuSans-51"/><use x="63.623" xlink:href="#DejaVuSans-50"/></g></g></g><g id="xtick_3"><g id="line2d_3"><path d="M 145.31125 299.518125 L 145.31125 22.318125" clip-path="url(#p348d1728ed)" style="fill:none;stroke:silver;stroke-linecap:round;stroke-width:.5"/></g><g id="text_3"><g style="fill:#262626" transform="translate(138.3125 317.376406)scale(0.11 -0.11)"><defs><path id="DejaVuSans-52" d="M 37.796875 64.3125 L 12.890625 25.390625 L 37.796875 25.390625 z M 35.203125 72.90625 L 47.609375 72.90625 L 47.609375 25.390625 L 58.015625 25.390625 L 58.015625 17.1875 L 47.609375 17.1875 L 47.609375 0 L 37.796875 0 L 37.796875 17.1875 L 4.890625 17.1875 L 4.890625 26.703125 z"/><path id="DejaVuSans-56" d="M 31.78125 34.625 Q 24.75 34.625 20.71875 30.859375 Q 16.703125 27.09375 16.703125 20.515625 Q 16.703125 13.921875 20.71875 10.15625 Q 24.75 6.390625 31.78125 6.390625 Q 38.8125 6.390625 42.859375 10.171875 Q 46.921875 13.96875 46.921875 20.515625 Q 46.921875 27.09375 42.890625 30.859375 Q 38.875 34.625 31.78125 34.625 z M 21.921875 38.8125 Q 15.578125 40.375 12.03125 44.71875 Q 8.5 49.078125 8.5 55.328125 Q 8.5 64.0625 14.71875 69.140625 Q 20.953125 74.21875 31.78125 74.21875 Q 42.671875 74.21875 48.875 69.140625 Q 55.078125 64.0625 55.078125 55.328125 Q 55.078125 49.078125 51.53125 44.71875 Q 48 40.375 41.703125 38.8125 Q 48.828125 37.15625 52.796875 32.3125 Q 56.78125 27.484375 56.78125 20.515625 Q 56.78125 9.90625 50.3125 4.234375 Q 43.84375 -1.421875 31.78125 -1.421875 Q 19.734375 -1.421875 13.25 4.234375 Q 6.78125 9.90625 6.78125 20.515625 Q 6.78125 27.484375 10.78125 32.3125 Q 14.796875 37.15625 21.921875 38.8125 z M 18.3125 54.390625 Q 18.3125 48.734375 21.84375 45.5625 Q 25.390625 42.390625 31.78125 42.390625 Q 38.140625 42.390625 41.71875 45.5625 Q 45.3125 48.734375 45.3125 54.390625 Q 45.3125 60.0625 41.71875 63.234375 Q 38.140625 66.40625 31.78125 66.40625 Q 25.390625 66.40625 21.84375 63.234375 Q 18.3125 60.0625 18.3125 54.390625 z"/></defs><use xlink:href="#DejaVuSans-52"/><use x="63.623" xlink:href="#DejaVuSans-56"/></g></g></g><g id="xtick_4"><g id="line2d_4"><path d="M 178.038523 299.518125 L 178.038523 22.318125" clip-path="url(#p348d1728ed)" style="fill:none;stroke:silver;stroke-linecap:round;stroke-width:.5"/></g><g id="text_4"><g style="fill:#262626" transform="translate(171.039773 317.376406)scale(0.11 -0.11)"><use xlink:href="#DejaVuSans-54"/><use x="63.623" xlink:href="#DejaVuSans-52"/></g></g></g><g id="xtick_5"><g id="line2d_5"><path d="M 210.765795 299.518125 L 210.765795 22.318125" clip-path="url(#p348d1728ed)" style="fill:none;stroke:silver;stroke-linecap:round;stroke-width:.5"/></g><g id="text_5"><g style="fill:#262626" transform="translate(203.767045 317.376406)scale(0.11 -0.11)"><defs><path id="DejaVuSans-48" d="M 31.78125 66.40625 Q 24.171875 66.40625 20.328125 58.90625 Q 16.5 51.421875 16.5 36.375 Q 16.5 21.390625 20.328125 13.890625 Q 24.171875 6.390625 31.78125 6.390625 Q 39.453125 6.390625 43.28125 13.890625 Q 47.125 21.390625 47.125 36.375 Q 47.125 51.421875 43.28125 58.90625 Q 39.453125 66.40625 31.78125 66.40625 z M 31.78125 74.21875 Q 44.046875 74.21875 50.515625 64.515625 Q 56.984375 54.828125 56.984375 36.375 Q 56.984375 17.96875 50.515625 8.265625 Q 44.046875 -1.421875 31.78125 -1.421875 Q 19.53125 -1.421875 13.0625 8.265625 Q 6.59375 17.96875 6.59375 36.375 Q 6.59375 54.828125 13.0625 64.515625 Q 19.53125 74.21875 31.78125 74.21875 z"/></defs><use xlink:href="#DejaVuSans-56"/><use x="63.623" xlink:href="#DejaVuSans-48"/></g></g></g><g id="xtick_6"><g id="line2d_6"><path d="M 243.493068 299.518125 L 243.493068 22.318125" clip-path="url(#p348d1728ed)" style="fill:none;stroke:silver;stroke-linecap:round;stroke-width:.5"/></g><g id="text_6"><g style="fill:#262626" transform="translate(236.494318 317.376406)scale(0.11 -0.11)"><defs><path id="DejaVuSans-57" d="M 10.984375 1.515625 L 10.984375 10.5 Q 14.703125 8.734375 18.5 7.8125 Q 22.3125 6.890625 25.984375 6.890625 Q 35.75 6.890625 40.890625 13.453125 Q 46.046875 20.015625 46.78125 33.40625 Q 43.953125 29.203125 39.59375 26.953125 Q 35.25 24.703125 29.984375 24.703125 Q 19.046875 24.703125 12.671875 31.3125 Q 6.296875 37.9375 6.296875 49.421875 Q 6.296875 60.640625 12.9375 67.421875 Q 19.578125 74.21875 30.609375 74.21875 Q 43.265625 74.21875 49.921875 64.515625 Q 56.59375 54.828125 56.59375 36.375 Q 56.59375 19.140625 48.40625 8.859375 Q 40.234375 -1.421875 26.421875 -1.421875 Q 22.703125 -1.421875 18.890625 -0.6875 Q 15.09375 0.046875 10.984375 1.515625 z M 30.609375 32.421875 Q 37.25 32.421875 41.125 36.953125 Q 45.015625 41.5 45.015625 49.421875 Q 45.015625 57.28125 41.125 61.84375 Q 37.25 66.40625 30.609375 66.40625 Q 23.96875 66.40625 20.09375 61.84375 Q 16.21875 57.28125 16.21875 49.421875 Q 16.21875 41.5 20.09375 36.953125 Q 23.96875 32.421875 30.609375 32.421875 z"/></defs><use xlink:href="#DejaVuSans-57"/><use x="63.623" xlink:href="#DejaVuSans-54"/></g></g></g><g id="xtick_7"><g id="line2d_7"><path d="M 276.220341 299.518125 L 276.220341 22.318125" clip-path="url(#p348d1728ed)" style="fill:none;stroke:silver;stroke-linecap:round;stroke-width:.5"/></g><g id="text_7"><g style="fill:#262626" transform="translate(265.722216 317.376406)scale(0.11 -0.11)"><use xlink:href="#DejaVuSans-49"/><use x="63.623" xlink:href="#DejaVuSans-49"/><use x="127.246" xlink:href="#DejaVuSans-50"/></g></g></g><g id="xtick_8"><g id="line2d_8"><path d="M 308.947614 299.518125 L 308.947614 22.318125" clip-path="url(#p348d1728ed)" style="fill:none;stroke:silver;stroke-linecap:round;stroke-width:.5"/></g><g id="text_8"><g style="fill:#262626" transform="translate(298.449489 317.376406)scale(0.11 -0.11)"><use xlink:href="#DejaVuSans-49"/><use x="63.623" xlink:href="#DejaVuSans-50"/><use x="127.246" xlink:href="#DejaVuSans-56"/></g></g></g><g id="xtick_9"><g id="line2d_9"><path d="M 341.674886 299.518125 L 341.674886 22.318125" clip-path="url(#p348d1728ed)" style="fill:none;stroke:silver;stroke-linecap:round;stroke-width:.5"/></g><g id="text_9"><g style="fill:#262626" transform="translate(331.176761 317.376406)scale(0.11 -0.11)"><use xlink:href="#DejaVuSans-49"/><use x="63.623" xlink:href="#DejaVuSans-52"/><use x="127.246" xlink:href="#DejaVuSans-52"/></g></g></g><g id="xtick_10"><g id="line2d_10"><path d="M 374.402159 299.518125 L 374.402159 22.318125" clip-path="url(#p348d1728ed)" style="fill:none;stroke:silver;stroke-linecap:round;stroke-width:.5"/></g><g id="text_10"><g style="fill:#262626" transform="translate(363.904034 317.376406)scale(0.11 -0.11)"><use xlink:href="#DejaVuSans-49"/><use x="63.623" xlink:href="#DejaVuSans-54"/><use x="127.246" xlink:href="#DejaVuSans-48"/></g></g></g><g id="xtick_11"><g id="line2d_11"><path d="M 407.129432 299.518125 L 407.129432 22.318125" clip-path="url(#p348d1728ed)" style="fill:none;stroke:silver;stroke-linecap:round;stroke-width:.5"/></g><g id="text_11"><g style="fill:#262626" transform="translate(396.631307 317.376406)scale(0.11 -0.11)"><defs><path id="DejaVuSans-55" d="M 8.203125 72.90625 L 55.078125 72.90625 L 55.078125 68.703125 L 28.609375 0 L 18.3125 0 L 43.21875 64.59375 L 8.203125 64.59375 z"/></defs><use xlink:href="#DejaVuSans-49"/><use x="63.623" xlink:href="#DejaVuSans-55"/><use x="127.246" xlink:href="#DejaVuSans-54"/></g></g></g><g id="xtick_12"><g id="line2d_12"><path d="M 439.856705 299.518125 L 439.856705 22.318125" clip-path="url(#p348d1728ed)" style="fill:none;stroke:silver;stroke-linecap:round;stroke-width:.5"/></g><g id="text_12"><g style="fill:#262626" transform="translate(429.35858 317.376406)scale(0.11 -0.11)"><use xlink:href="#DejaVuSans-49"/><use x="63.623" xlink:href="#DejaVuSans-57"/><use x="127.246" xlink:href="#DejaVuSans-50"/></g></g></g><g id="xtick_13"><g id="line2d_13"><path d="M 472.583977 299.518125 L 472.583977 22.318125" clip-path="url(#p348d1728ed)" style="fill:none;stroke:silver;stroke-linecap:round;stroke-width:.5"/></g><g id="text_13"><g style="fill:#262626" transform="translate(462.085852 317.376406)scale(0.11 -0.11)"><use xlink:href="#DejaVuSans-50"/><use x="63.623" xlink:href="#DejaVuSans-48"/><use x="127.246" xlink:href="#DejaVuSans-56"/></g></g></g><g id="xtick_14"><g id="line2d_14"><path d="M 505.31125 299.518125 L 505.31125 22.318125" clip-path="url(#p348d1728ed)" style="fill:none;stroke:silver;stroke-linecap:round;stroke-width:.5"/></g><g id="text_14"><g style="fill:#262626" transform="translate(494.813125 317.376406)scale(0.11 -0.11)"><use xlink:href="#DejaVuSans-50"/><use x="63.623" xlink:href="#DejaVuSans-50"/><use x="127.246" xlink:href="#DejaVuSans-52"/></g></g></g><g id="xtick_15"><g id="line2d_15"><path d="M 538.038523 299.518125 L 538.038523 22.318125" clip-path="url(#p348d1728ed)" style="fill:none;stroke:silver;stroke-linecap:round;stroke-width:.5"/></g><g id="text_15"><g style="fill:#262626" transform="translate(527.540398 317.376406)scale(0.11 -0.11)"><use xlink:href="#DejaVuSans-50"/><use x="63.623" xlink:href="#DejaVuSans-52"/><use x="127.246" xlink:href="#DejaVuSans-48"/></g></g></g><g id="xtick_16"><g id="line2d_16"><path d="M 570.765795 299.518125 L 570.765795 22.318125" clip-path="url(#p348d1728ed)" style="fill:none;stroke:silver;stroke-linecap:round;stroke-width:.5"/></g><g id="text_16"><g style="fill:#262626" transform="translate(560.26767 317.376406)scale(0.11 -0.11)"><defs><path id="DejaVuSans-53" d="M 10.796875 72.90625 L 49.515625 72.90625 L 49.515625 64.59375 L 19.828125 64.59375 L 19.828125 46.734375 Q 21.96875 47.46875 24.109375 47.828125 Q 26.265625 48.1875 28.421875 48.1875 Q 40.625 48.1875 47.75 41.5 Q 54.890625 34.8125 54.890625 23.390625 Q 54.890625 11.625 47.5625 5.09375 Q 40.234375 -1.421875 26.90625 -1.421875 Q 22.3125 -1.421875 17.546875 -0.640625 Q 12.796875 0.140625 7.71875 1.703125 L 7.71875 11.625 Q 12.109375 9.234375 16.796875 8.0625 Q 21.484375 6.890625 26.703125 6.890625 Q 35.15625 6.890625 40.078125 11.328125 Q 45.015625 15.765625 45.015625 23.390625 Q 45.015625 31 40.078125 35.4375 Q 35.15625 39.890625 26.703125 39.890625 Q 22.75 39.890625 18.8125 39.015625 Q 14.890625 38.140625 10.796875 36.28125 z"/></defs><use xlink:href="#DejaVuSans-50"/><use x="63.623" xlink:href="#DejaVuSans-53"/><use x="127.246" xlink:href="#DejaVuSans-54"/></g></g></g><g id="text_17"><g style="fill:#262626" transform="translate(245.783125 332.782188)scale(0.12 -0.12)"><defs><path id="DejaVuSans-67" d="M 64.40625 67.28125 L 64.40625 56.890625 Q 59.421875 61.53125 53.78125 63.8125 Q 48.140625 66.109375 41.796875 66.109375 Q 29.296875 66.109375 22.65625 58.46875 Q 16.015625 50.828125 16.015625 36.375 Q 16.015625 21.96875 22.65625 14.328125 Q 29.296875 6.6875 41.796875 6.6875 Q 48.140625 6.6875 53.78125 8.984375 Q 59.421875 11.28125 64.40625 15.921875 L 64.40625 5.609375 Q 59.234375 2.09375 53.4375 0.328125 Q 47.65625 -1.421875 41.21875 -1.421875 Q 24.65625 -1.421875 15.125 8.703125 Q 5.609375 18.84375 5.609375 36.375 Q 5.609375 53.953125 15.125 64.078125 Q 24.65625 74.21875 41.21875 74.21875 Q 47.75 74.21875 53.53125 72.484375 Q 59.328125 70.75 64.40625 67.28125 z"/><path id="DejaVuSans-111" d="M 30.609375 48.390625 Q 23.390625 48.390625 19.1875 42.75 Q 14.984375 37.109375 14.984375 27.296875 Q 14.984375 17.484375 19.15625 11.84375 Q 23.34375 6.203125 30.609375 6.203125 Q 37.796875 6.203125 41.984375 11.859375 Q 46.1875 17.53125 46.1875 27.296875 Q 46.1875 37.015625 41.984375 42.703125 Q 37.796875 48.390625 30.609375 48.390625 z M 30.609375 56 Q 42.328125 56 49.015625 48.375 Q 55.71875 40.765625 55.71875 27.296875 Q 55.71875 13.875 49.015625 6.21875 Q 42.328125 -1.421875 30.609375 -1.421875 Q 18.84375 -1.421875 12.171875 6.21875 Q 5.515625 13.875 5.515625 27.296875 Q 5.515625 40.765625 12.171875 48.375 Q 18.84375 56 30.609375 56 z"/><path id="DejaVuSans-110" d="M 54.890625 33.015625 L 54.890625 0 L 45.90625 0 L 45.90625 32.71875 Q 45.90625 40.484375 42.875 44.328125 Q 39.84375 48.1875 33.796875 48.1875 Q 26.515625 48.1875 22.3125 43.546875 Q 18.109375 38.921875 18.109375 30.90625 L 18.109375 0 L 9.078125 0 L 9.078125 54.6875 L 18.109375 54.6875 L 18.109375 46.1875 Q 21.34375 51.125 25.703125 53.5625 Q 30.078125 56 35.796875 56 Q 45.21875 56 50.046875 50.171875 Q 54.890625 44.34375 54.890625 33.015625 z"/><path id="DejaVuSans-99" d="M 48.78125 52.59375 L 48.78125 44.1875 Q 44.96875 46.296875 41.140625 47.34375 Q 37.3125 48.390625 33.40625 48.390625 Q 24.65625 48.390625 19.8125 42.84375 Q 14.984375 37.3125 14.984375 27.296875 Q 14.984375 17.28125 19.8125 11.734375 Q 24.65625 6.203125 33.40625 6.203125 Q 37.3125 6.203125 41.140625 7.25 Q 44.96875 8.296875 48.78125 10.40625 L 48.78125 2.09375 Q 45.015625 0.34375 40.984375 -0.53125 Q 36.96875 -1.421875 32.421875 -1.421875 Q 20.0625 -1.421875 12.78125 6.34375 Q 5.515625 14.109375 5.515625 27.296875 Q 5.515625 40.671875 12.859375 48.328125 Q 20.21875 56 33.015625 56 Q 37.15625 56 41.109375 55.140625 Q 45.0625 54.296875 48.78125 52.59375 z"/><path id="DejaVuSans-117" d="M 8.5 21.578125 L 8.5 54.6875 L 17.484375 54.6875 L 17.484375 21.921875 Q 17.484375 14.15625 20.5 10.265625 Q 23.53125 6.390625 29.59375 6.390625 Q 36.859375 6.390625 41.078125 11.03125 Q 45.3125 15.671875 45.3125 23.6875 L 45.3125 54.6875 L 54.296875 54.6875 L 54.296875 0 L 45.3125 0 L 45.3125 8.40625 Q 42.046875 3.421875 37.71875 1 Q 33.40625 -1.421875 27.6875 -1.421875 Q 18.265625 -1.421875 13.375 4.4375 Q 8.5 10.296875 8.5 21.578125 z M 31.109375 56 z"/><path id="DejaVuSans-114" d="M 41.109375 46.296875 Q 39.59375 47.171875 37.8125 47.578125 Q 36.03125 48 33.890625 48 Q 26.265625 48 22.1875 43.046875 Q 18.109375 38.09375 18.109375 28.8125 L 18.109375 0 L 9.078125 0 L 9.078125 54.6875 L 18.109375 54.6875 L 18.109375 46.1875 Q 20.953125 51.171875 25.484375 53.578125 Q 30.03125 56 36.53125 56 Q 37.453125 56 38.578125 55.875 Q 39.703125 55.765625 41.0625 55.515625 z"/><path id="DejaVuSans-101" d="M 56.203125 29.59375 L 56.203125 25.203125 L 14.890625 25.203125 Q 15.484375 15.921875 20.484375 11.0625 Q 25.484375 6.203125 34.421875 6.203125 Q 39.59375 6.203125 44.453125 7.46875 Q 49.3125 8.734375 54.109375 11.28125 L 54.109375 2.78125 Q 49.265625 0.734375 44.1875 -0.34375 Q 39.109375 -1.421875 33.890625 -1.421875 Q 20.796875 -1.421875 13.15625 6.1875 Q 5.515625 13.8125 5.515625 26.8125 Q 5.515625 40.234375 12.765625 48.109375 Q 20.015625 56 32.328125 56 Q 43.359375 56 49.78125 48.890625 Q 56.203125 41.796875 56.203125 29.59375 z M 47.21875 32.234375 Q 47.125 39.59375 43.09375 43.984375 Q 39.0625 48.390625 32.421875 48.390625 Q 24.90625 48.390625 20.390625 44.140625 Q 15.875 39.890625 15.1875 32.171875 z"/><path id="DejaVuSans-116" d="M 18.3125 70.21875 L 18.3125 54.6875 L 36.8125 54.6875 L 36.8125 47.703125 L 18.3125 47.703125 L 18.3125 18.015625 Q 18.3125 11.328125 20.140625 9.421875 Q 21.96875 7.515625 27.59375 7.515625 L 36.8125 7.515625 L 36.8125 0 L 27.59375 0 Q 17.1875 0 13.234375 3.875 Q 9.28125 7.765625 9.28125 18.015625 L 9.28125 47.703125 L 2.6875 47.703125 L 2.6875 54.6875 L 9.28125 54.6875 L 9.28125 70.21875 z"/><path id="DejaVuSans-32"/><path id="DejaVuSans-108" d="M 9.421875 75.984375 L 18.40625 75.984375 L 18.40625 0 L 9.421875 0 z"/><path id="DejaVuSans-105" d="M 9.421875 54.6875 L 18.40625 54.6875 L 18.40625 0 L 9.421875 0 z M 9.421875 75.984375 L 18.40625 75.984375 L 18.40625 64.59375 L 9.421875 64.59375 z"/><path id="DejaVuSans-113" d="M 14.796875 27.296875 Q 14.796875 17.390625 18.875 11.75 Q 22.953125 6.109375 30.078125 6.109375 Q 37.203125 6.109375 41.296875 11.75 Q 45.40625 17.390625 45.40625 27.296875 Q 45.40625 37.203125 41.296875 42.84375 Q 37.203125 48.484375 30.078125 48.484375 Q 22.953125 48.484375 18.875 42.84375 Q 14.796875 37.203125 14.796875 27.296875 z M 45.40625 8.203125 Q 42.578125 3.328125 38.25 0.953125 Q 33.9375 -1.421875 27.875 -1.421875 Q 17.96875 -1.421875 11.734375 6.484375 Q 5.515625 14.40625 5.515625 27.296875 Q 5.515625 40.1875 11.734375 48.09375 Q 17.96875 56 27.875 56 Q 33.9375 56 38.25 53.625 Q 42.578125 51.265625 45.40625 46.390625 L 45.40625 54.6875 L 54.390625 54.6875 L 54.390625 -20.796875 L 45.40625 -20.796875 z"/><path id="DejaVuSans-115" d="M 44.28125 53.078125 L 44.28125 44.578125 Q 40.484375 46.53125 36.375 47.5 Q 32.28125 48.484375 27.875 48.484375 Q 21.1875 48.484375 17.84375 46.4375 Q 14.5 44.390625 14.5 40.28125 Q 14.5 37.15625 16.890625 35.375 Q 19.28125 33.59375 26.515625 31.984375 L 29.59375 31.296875 Q 39.15625 29.25 43.1875 25.515625 Q 47.21875 21.78125 47.21875 15.09375 Q 47.21875 7.46875 41.1875 3.015625 Q 35.15625 -1.421875 24.609375 -1.421875 Q 20.21875 -1.421875 15.453125 -0.5625 Q 10.6875 0.296875 5.421875 2 L 5.421875 11.28125 Q 10.40625 8.6875 15.234375 7.390625 Q 20.0625 6.109375 24.8125 6.109375 Q 31.15625 6.109375 34.5625 8.28125 Q 37.984375 10.453125 37.984375 14.40625 Q 37.984375 18.0625 35.515625 20.015625 Q 33.0625 21.96875 24.703125 23.78125 L 21.578125 24.515625 Q 13.234375 26.265625 9.515625 29.90625 Q 5.8125 33.546875 5.8125 39.890625 Q 5.8125 47.609375 11.28125 51.796875 Q 16.75 56 26.8125 56 Q 31.78125 56 36.171875 55.265625 Q 40.578125 54.546875 44.28125 53.078125 z"/></defs><use xlink:href="#DejaVuSans-67"/><use x="69.824" xlink:href="#DejaVuSans-111"/><use x="131.006" xlink:href="#DejaVuSans-110"/><use x="194.385" xlink:href="#DejaVuSans-99"/><use x="249.365" xlink:href="#DejaVuSans-117"/><use x="312.744" xlink:href="#DejaVuSans-114"/><use x="352.107" xlink:href="#DejaVuSans-114"/><use x="390.971" xlink:href="#DejaVuSans-101"/><use x="452.494" xlink:href="#DejaVuSans-110"/><use x="515.873" xlink:href="#DejaVuSans-116"/><use x="555.082" xlink:href="#DejaVuSans-32"/><use x="586.869" xlink:href="#DejaVuSans-99"/><use x="641.85" xlink:href="#DejaVuSans-108"/><use x="669.633" xlink:href="#DejaVuSans-105"/><use x="697.416" xlink:href="#DejaVuSans-101"/><use x="758.939" xlink:href="#DejaVuSans-110"/><use x="822.318" xlink:href="#DejaVuSans-116"/><use x="861.527" xlink:href="#DejaVuSans-32"/><use x="893.314" xlink:href="#DejaVuSans-114"/><use x="932.178" xlink:href="#DejaVuSans-101"/><use x="993.701" xlink:href="#DejaVuSans-113"/><use x="1057.178" xlink:href="#DejaVuSans-117"/><use x="1120.557" xlink:href="#DejaVuSans-101"/><use x="1182.08" xlink:href="#DejaVuSans-115"/><use x="1234.18" xlink:href="#DejaVuSans-116"/><use x="1273.389" xlink:href="#DejaVuSans-115"/></g></g></g><g id="matplotlib.axis_2"><g id="ytick_1"><g id="line2d_17"><path d="M 46.31125 299.518125 L 604.31125 299.518125" clip-path="url(#p348d1728ed)" style="fill:none;stroke:silver;stroke-linecap:round;stroke-width:.5"/></g><g id="line2d_18"><defs><path id="m23dde6c839" d="M 0 0 L -6 0" style="stroke:#262626;stroke-width:1.25"/></defs><g><use style="fill:#262626;stroke:#262626;stroke-width:1.25" x="46.311" y="299.518" xlink:href="#m23dde6c839"/></g></g><g id="text_18"><g style="fill:#262626" transform="translate(29.8125 303.697266)scale(0.11 -0.11)"><use xlink:href="#DejaVuSans-48"/></g></g></g><g id="ytick_2"><g id="line2d_19"><path d="M 46.31125 261.54032 L 604.31125 261.54032" clip-path="url(#p348d1728ed)" style="fill:none;stroke:silver;stroke-linecap:round;stroke-width:.5"/></g><g id="line2d_20"><g><use style="fill:#262626;stroke:#262626;stroke-width:1.25" x="46.311" y="261.54" xlink:href="#m23dde6c839"/></g></g><g id="text_19"><g style="fill:#262626" transform="translate(22.81375 265.71946)scale(0.11 -0.11)"><use xlink:href="#DejaVuSans-49"/><use x="63.623" xlink:href="#DejaVuSans-48"/></g></g></g><g id="ytick_3"><g id="line2d_21"><path d="M 46.31125 223.562515 L 604.31125 223.562515" clip-path="url(#p348d1728ed)" style="fill:none;stroke:silver;stroke-linecap:round;stroke-width:.5"/></g><g id="line2d_22"><g><use style="fill:#262626;stroke:#262626;stroke-width:1.25" x="46.311" y="223.563" xlink:href="#m23dde6c839"/></g></g><g id="text_20"><g style="fill:#262626" transform="translate(22.81375 227.741655)scale(0.11 -0.11)"><use xlink:href="#DejaVuSans-50"/><use x="63.623" xlink:href="#DejaVuSans-48"/></g></g></g><g id="ytick_4"><g id="line2d_23"><path d="M 46.31125 185.584709 L 604.31125 185.584709" clip-path="url(#p348d1728ed)" style="fill:none;stroke:silver;stroke-linecap:round;stroke-width:.5"/></g><g id="line2d_24"><g><use style="fill:#262626;stroke:#262626;stroke-width:1.25" x="46.311" y="185.585" xlink:href="#m23dde6c839"/></g></g><g id="text_21"><g style="fill:#262626" transform="translate(22.81375 189.76385)scale(0.11 -0.11)"><use xlink:href="#DejaVuSans-51"/><use x="63.623" xlink:href="#DejaVuSans-48"/></g></g></g><g id="ytick_5"><g id="line2d_25"><path d="M 46.31125 147.606904 L 604.31125 147.606904" clip-path="url(#p348d1728ed)" style="fill:none;stroke:silver;stroke-linecap:round;stroke-width:.5"/></g><g id="line2d_26"><g><use style="fill:#262626;stroke:#262626;stroke-width:1.25" x="46.311" y="147.607" xlink:href="#m23dde6c839"/></g></g><g id="text_22"><g style="fill:#262626" transform="translate(22.81375 151.786045)scale(0.11 -0.11)"><use xlink:href="#DejaVuSans-52"/><use x="63.623" xlink:href="#DejaVuSans-48"/></g></g></g><g id="ytick_6"><g id="line2d_27"><path d="M 46.31125 109.629099 L 604.31125 109.629099" clip-path="url(#p348d1728ed)" style="fill:none;stroke:silver;stroke-linecap:round;stroke-width:.5"/></g><g id="line2d_28"><g><use style="fill:#262626;stroke:#262626;stroke-width:1.25" x="46.311" y="109.629" xlink:href="#m23dde6c839"/></g></g><g id="text_23"><g style="fill:#262626" transform="translate(22.81375 113.80824)scale(0.11 -0.11)"><use xlink:href="#DejaVuSans-53"/><use x="63.623" xlink:href="#DejaVuSans-48"/></g></g></g><g id="ytick_7"><g id="line2d_29"><path d="M 46.31125 71.651294 L 604.31125 71.651294" clip-path="url(#p348d1728ed)" style="fill:none;stroke:silver;stroke-linecap:round;stroke-width:.5"/></g><g id="line2d_30"><g><use style="fill:#262626;stroke:#262626;stroke-width:1.25" x="46.311" y="71.651" xlink:href="#m23dde6c839"/></g></g><g id="text_24"><g style="fill:#262626" transform="translate(22.81375 75.830435)scale(0.11 -0.11)"><use xlink:href="#DejaVuSans-54"/><use x="63.623" xlink:href="#DejaVuSans-48"/></g></g></g><g id="ytick_8"><g id="line2d_31"><path d="M 46.31125 33.673489 L 604.31125 33.673489" clip-path="url(#p348d1728ed)" style="fill:none;stroke:silver;stroke-linecap:round;stroke-width:.5"/></g><g id="line2d_32"><g><use style="fill:#262626;stroke:#262626;stroke-width:1.25" x="46.311" y="33.673" xlink:href="#m23dde6c839"/></g></g><g id="text_25"><g style="fill:#262626" transform="translate(22.81375 37.852629)scale(0.11 -0.11)"><use xlink:href="#DejaVuSans-55"/><use x="63.623" xlink:href="#DejaVuSans-48"/></g></g></g><g id="text_26"><g style="fill:#262626" transform="translate(16.318125 241.279688)rotate(-90)scale(0.12 -0.12)"><defs><path id="DejaVuSans-65" d="M 34.1875 63.1875 L 20.796875 26.90625 L 47.609375 26.90625 z M 28.609375 72.90625 L 39.796875 72.90625 L 67.578125 0 L 57.328125 0 L 50.6875 18.703125 L 17.828125 18.703125 L 11.1875 0 L 0.78125 0 z"/><path id="DejaVuSans-118" d="M 2.984375 54.6875 L 12.5 54.6875 L 29.59375 8.796875 L 46.6875 54.6875 L 56.203125 54.6875 L 35.6875 0 L 23.484375 0 z"/><path id="DejaVuSans-103" d="M 45.40625 27.984375 Q 45.40625 37.75 41.375 43.109375 Q 37.359375 48.484375 30.078125 48.484375 Q 22.859375 48.484375 18.828125 43.109375 Q 14.796875 37.75 14.796875 27.984375 Q 14.796875 18.265625 18.828125 12.890625 Q 22.859375 7.515625 30.078125 7.515625 Q 37.359375 7.515625 41.375 12.890625 Q 45.40625 18.265625 45.40625 27.984375 z M 54.390625 6.78125 Q 54.390625 -7.171875 48.1875 -13.984375 Q 42 -20.796875 29.203125 -20.796875 Q 24.46875 -20.796875 20.265625 -20.09375 Q 16.0625 -19.390625 12.109375 -17.921875 L 12.109375 -9.1875 Q 16.0625 -11.328125 19.921875 -12.34375 Q 23.78125 -13.375 27.78125 -13.375 Q 36.625 -13.375 41.015625 -8.765625 Q 45.40625 -4.15625 45.40625 5.171875 L 45.40625 9.625 Q 42.625 4.78125 38.28125 2.390625 Q 33.9375 0 27.875 0 Q 17.828125 0 11.671875 7.65625 Q 5.515625 15.328125 5.515625 27.984375 Q 5.515625 40.671875 11.671875 48.328125 Q 17.828125 56 27.875 56 Q 33.9375 56 38.28125 53.609375 Q 42.625 51.21875 45.40625 46.390625 L 45.40625 54.6875 L 54.390625 54.6875 z"/><path id="DejaVuSans-76" d="M 9.8125 72.90625 L 19.671875 72.90625 L 19.671875 8.296875 L 55.171875 8.296875 L 55.171875 0 L 9.8125 0 z"/><path id="DejaVuSans-97" d="M 34.28125 27.484375 Q 23.390625 27.484375 19.1875 25 Q 14.984375 22.515625 14.984375 16.5 Q 14.984375 11.71875 18.140625 8.90625 Q 21.296875 6.109375 26.703125 6.109375 Q 34.1875 6.109375 38.703125 11.40625 Q 43.21875 16.703125 43.21875 25.484375 L 43.21875 27.484375 z M 52.203125 31.203125 L 52.203125 0 L 43.21875 0 L 43.21875 8.296875 Q 40.140625 3.328125 35.546875 0.953125 Q 30.953125 -1.421875 24.3125 -1.421875 Q 15.921875 -1.421875 10.953125 3.296875 Q 6 8.015625 6 15.921875 Q 6 25.140625 12.171875 29.828125 Q 18.359375 34.515625 30.609375 34.515625 L 43.21875 34.515625 L 43.21875 35.40625 Q 43.21875 41.609375 39.140625 45 Q 35.0625 48.390625 27.6875 48.390625 Q 23 48.390625 18.546875 47.265625 Q 14.109375 46.140625 10.015625 43.890625 L 10.015625 52.203125 Q 14.9375 54.109375 19.578125 55.046875 Q 24.21875 56 28.609375 56 Q 40.484375 56 46.34375 49.84375 Q 52.203125 43.703125 52.203125 31.203125 z"/><path id="DejaVuSans-121" d="M 32.171875 -5.078125 Q 28.375 -14.84375 24.75 -17.8125 Q 21.140625 -20.796875 15.09375 -20.796875 L 7.90625 -20.796875 L 7.90625 -13.28125 L 13.1875 -13.28125 Q 16.890625 -13.28125 18.9375 -11.515625 Q 21 -9.765625 23.484375 -3.21875 L 25.09375 0.875 L 2.984375 54.6875 L 12.5 54.6875 L 29.59375 11.921875 L 46.6875 54.6875 L 56.203125 54.6875 z"/><path id="DejaVuSans-40" d="M 31 75.875 Q 24.46875 64.65625 21.28125 53.65625 Q 18.109375 42.671875 18.109375 31.390625 Q 18.109375 20.125 21.3125 9.0625 Q 24.515625 -2 31 -13.1875 L 23.1875 -13.1875 Q 15.875 -1.703125 12.234375 9.375 Q 8.59375 20.453125 8.59375 31.390625 Q 8.59375 42.28125 12.203125 53.3125 Q 15.828125 64.359375 23.1875 75.875 z"/><path id="DejaVuSans-109" d="M 52 44.1875 Q 55.375 50.25 60.0625 53.125 Q 64.75 56 71.09375 56 Q 79.640625 56 84.28125 50.015625 Q 88.921875 44.046875 88.921875 33.015625 L 88.921875 0 L 79.890625 0 L 79.890625 32.71875 Q 79.890625 40.578125 77.09375 44.375 Q 74.3125 48.1875 68.609375 48.1875 Q 61.625 48.1875 57.5625 43.546875 Q 53.515625 38.921875 53.515625 30.90625 L 53.515625 0 L 44.484375 0 L 44.484375 32.71875 Q 44.484375 40.625 41.703125 44.40625 Q 38.921875 48.1875 33.109375 48.1875 Q 26.21875 48.1875 22.15625 43.53125 Q 18.109375 38.875 18.109375 30.90625 L 18.109375 0 L 9.078125 0 L 9.078125 54.6875 L 18.109375 54.6875 L 18.109375 46.1875 Q 21.1875 51.21875 25.484375 53.609375 Q 29.78125 56 35.6875 56 Q 41.65625 56 45.828125 52.96875 Q 50 49.953125 52 44.1875 z"/><path id="DejaVuSans-100" d="M 45.40625 46.390625 L 45.40625 75.984375 L 54.390625 75.984375 L 54.390625 0 L 45.40625 0 L 45.40625 8.203125 Q 42.578125 3.328125 38.25 0.953125 Q 33.9375 -1.421875 27.875 -1.421875 Q 17.96875 -1.421875 11.734375 6.484375 Q 5.515625 14.40625 5.515625 27.296875 Q 5.515625 40.1875 11.734375 48.09375 Q 17.96875 56 27.875 56 Q 33.9375 56 38.25 53.625 Q 42.578125 51.265625 45.40625 46.390625 z M 14.796875 27.296875 Q 14.796875 17.390625 18.875 11.75 Q 22.953125 6.109375 30.078125 6.109375 Q 37.203125 6.109375 41.296875 11.75 Q 45.40625 17.390625 45.40625 27.296875 Q 45.40625 37.203125 41.296875 42.84375 Q 37.203125 48.484375 30.078125 48.484375 Q 22.953125 48.484375 18.875 42.84375 Q 14.796875 37.203125 14.796875 27.296875 z"/><path id="DejaVuSans-41" d="M 8.015625 75.875 L 15.828125 75.875 Q 23.140625 64.359375 26.78125 53.3125 Q 30.421875 42.28125 30.421875 31.390625 Q 30.421875 20.453125 26.78125 9.375 Q 23.140625 -1.703125 15.828125 -13.1875 L 8.015625 -13.1875 Q 14.5 -2 17.703125 9.0625 Q 20.90625 20.125 20.90625 31.390625 Q 20.90625 42.671875 17.703125 53.65625 Q 14.5 64.65625 8.015625 75.875 z"/></defs><use xlink:href="#DejaVuSans-65"/><use x="62.533" xlink:href="#DejaVuSans-118"/><use x="121.713" xlink:href="#DejaVuSans-103"/><use x="185.189" xlink:href="#DejaVuSans-32"/><use x="216.977" xlink:href="#DejaVuSans-76"/><use x="272.689" xlink:href="#DejaVuSans-97"/><use x="333.969" xlink:href="#DejaVuSans-116"/><use x="373.178" xlink:href="#DejaVuSans-101"/><use x="434.701" xlink:href="#DejaVuSans-110"/><use x="498.08" xlink:href="#DejaVuSans-99"/><use x="553.061" xlink:href="#DejaVuSans-121"/><use x="612.24" xlink:href="#DejaVuSans-32"/><use x="644.027" xlink:href="#DejaVuSans-40"/><use x="683.041" xlink:href="#DejaVuSans-109"/><use x="780.453" xlink:href="#DejaVuSans-105"/><use x="808.236" xlink:href="#DejaVuSans-108"/><use x="836.02" xlink:href="#DejaVuSans-108"/><use x="863.803" xlink:href="#DejaVuSans-105"/><use x="891.586" xlink:href="#DejaVuSans-115"/><use x="943.686" xlink:href="#DejaVuSans-101"/><use x="1005.209" xlink:href="#DejaVuSans-99"/><use x="1060.189" xlink:href="#DejaVuSans-111"/><use x="1121.371" xlink:href="#DejaVuSans-110"/><use x="1184.75" xlink:href="#DejaVuSans-100"/><use x="1248.227" xlink:href="#DejaVuSans-115"/><use x="1300.326" xlink:href="#DejaVuSans-41"/></g></g></g><g id="patch_3"><path d="M 71.674886 299.518125 L 88.038523 299.518125 L 88.038523 299.104167 L 71.674886 299.104167 z" clip-path="url(#p348d1728ed)" style="fill:#4285f4;stroke:#fff;stroke-linejoin:miter"/></g><g id="patch_4"><path d="M 104.402159 299.518125 L 120.765795 299.518125 L 120.765795 299.069987 L 104.402159 299.069987 z" clip-path="url(#p348d1728ed)" style="fill:#4285f4;stroke:#fff;stroke-linejoin:miter"/></g><g id="patch_5"><path d="M 137.129432 299.518125 L 153.493068 299.518125 L 153.493068 299.062391 L 137.129432 299.062391 z" clip-path="url(#p348d1728ed)" style="fill:#4285f4;stroke:#fff;stroke-linejoin:miter"/></g><g id="patch_6"><path d="M 169.856705 299.518125 L 186.220341 299.518125 L 186.220341 299.062391 L 169.856705 299.062391 z" clip-path="url(#p348d1728ed)" style="fill:#4285f4;stroke:#fff;stroke-linejoin:miter"/></g><g id="patch_7"><path d="M 202.583977 299.518125 L 218.947614 299.518125 L 218.947614 299.039605 L 202.583977 299.039605 z" clip-path="url(#p348d1728ed)" style="fill:#4285f4;stroke:#fff;stroke-linejoin:miter"/></g><g id="patch_8"><path d="M 235.31125 299.518125 L 251.674886 299.518125 L 251.674886 299.01302 L 235.31125 299.01302 z" clip-path="url(#p348d1728ed)" style="fill:#4285f4;stroke:#fff;stroke-linejoin:miter"/></g><g id="patch_9"><path d="M 268.038523 299.518125 L 284.402159 299.518125 L 284.402159 299.005425 L 268.038523 299.005425 z" clip-path="url(#p348d1728ed)" style="fill:#4285f4;stroke:#fff;stroke-linejoin:miter"/></g><g id="patch_10"><path d="M 300.765795 299.518125 L 317.129432 299.518125 L 317.129432 298.994031 L 300.765795 298.994031 z" clip-path="url(#p348d1728ed)" style="fill:#4285f4;stroke:#fff;stroke-linejoin:miter"/></g><g id="patch_11"><path d="M 333.493068 299.518125 L 349.856705 299.518125 L 349.856705 298.997829 L 333.493068 298.997829 z" clip-path="url(#p348d1728ed)" style="fill:#4285f4;stroke:#fff;stroke-linejoin:miter"/></g><g id="patch_12"><path d="M 366.220341 299.518125 L 382.583977 299.518125 L 382.583977 298.997829 L 366.220341 298.997829 z" clip-path="url(#p348d1728ed)" style="fill:#4285f4;stroke:#fff;stroke-linejoin:miter"/></g><g id="patch_13"><path d="M 398.947614 299.518125 L 415.31125 299.518125 L 415.31125 298.97884 L 398.947614 298.97884 z" clip-path="url(#p348d1728ed)" style="fill:#4285f4;stroke:#fff;stroke-linejoin:miter"/></g><g id="patch_14"><path d="M 431.674886 299.518125 L 448.038523 299.518125 L 448.038523 298.975042 L 431.674886 298.975042 z" clip-path="url(#p348d1728ed)" style="fill:#4285f4;stroke:#fff;stroke-linejoin:miter"/></g><g id="patch_15"><path d="M 464.402159 299.518125 L 480.765795 299.518125 L 480.765795 298.959851 L 464.402159 298.959851 z" clip-path="url(#p348d1728ed)" style="fill:#4285f4;stroke:#fff;stroke-linejoin:miter"/></g><g id="patch_16"><path d="M 497.129432 299.518125 L 513.493068 299.518125 L 513.493068 298.956053 L 497.129432 298.956053 z" clip-path="url(#p348d1728ed)" style="fill:#4285f4;stroke:#fff;stroke-linejoin:miter"/></g><g id="patch_17"><path d="M 529.856705 299.518125 L 546.220341 299.518125 L 546.220341 298.937065 L 529.856705 298.937065 z" clip-path="url(#p348d1728ed)" style="fill:#4285f4;stroke:#fff;stroke-linejoin:miter"/></g><g id="patch_18"><path d="M 562.583977 299.518125 L 578.947614 299.518125 L 578.947614 298.91048 L 562.583977 298.91048 z" clip-path="url(#p348d1728ed)" style="fill:#4285f4;stroke:#fff;stroke-linejoin:miter"/></g><g id="patch_19"><path d="M 71.674886 299.104167 L 88.038523 299.104167 L 88.038523 280.589987 L 71.674886 280.589987 z" clip-path="url(#p348d1728ed)" style="fill:#db4437;stroke:#fff;stroke-linejoin:miter"/></g><g id="patch_20"><path d="M 104.402159 299.069987 L 120.765795 299.069987 L 120.765795 267.161035 L 104.402159 267.161035 z" clip-path="url(#p348d1728ed)" style="fill:#db4437;stroke:#fff;stroke-linejoin:miter"/></g><g id="patch_21"><path d="M 137.129432 299.062391 L 153.493068 299.062391 L 153.493068 255.368926 L 137.129432 255.368926 z" clip-path="url(#p348d1728ed)" style="fill:#db4437;stroke:#fff;stroke-linejoin:miter"/></g><g id="patch_22"><path d="M 169.856705 299.062391 L 186.220341 299.062391 L 186.220341 244.211047 L 169.856705 244.211047 z" clip-path="url(#p348d1728ed)" style="fill:#db4437;stroke:#fff;stroke-linejoin:miter"/></g><g id="patch_23"><path d="M 202.583977 299.039605 L 218.947614 299.039605 L 218.947614 242.388113 L 202.583977 242.388113 z" clip-path="url(#p348d1728ed)" style="fill:#db4437;stroke:#fff;stroke-linejoin:miter"/></g><g id="patch_24"><path d="M 235.31125 299.01302 L 251.674886 299.01302 L 251.674886 227.5236 L 235.31125 227.5236 z" clip-path="url(#p348d1728ed)" style="fill:#db4437;stroke:#fff;stroke-linejoin:miter"/></g><g id="patch_25"><path d="M 268.038523 299.005425 L 284.402159 299.005425 L 284.402159 222.981454 L 268.038523 222.981454 z" clip-path="url(#p348d1728ed)" style="fill:#db4437;stroke:#fff;stroke-linejoin:miter"/></g><g id="patch_26"><path d="M 300.765795 298.994031 L 317.129432 298.994031 L 317.129432 218.891245 L 300.765795 218.891245 z" clip-path="url(#p348d1728ed)" style="fill:#db4437;stroke:#fff;stroke-linejoin:miter"/></g><g id="patch_27"><path d="M 333.493068 298.997829 L 349.856705 298.997829 L 349.856705 217.698742 L 333.493068 217.698742 z" clip-path="url(#p348d1728ed)" style="fill:#db4437;stroke:#fff;stroke-linejoin:miter"/></g><g id="patch_28"><path d="M 366.220341 298.997829 L 382.583977 298.997829 L 382.583977 211.85016 L 366.220341 211.85016 z" clip-path="url(#p348d1728ed)" style="fill:#db4437;stroke:#fff;stroke-linejoin:miter"/></g><g id="patch_29"><path d="M 398.947614 298.97884 L 415.31125 298.97884 L 415.31125 204.076103 L 398.947614 204.076103 z" clip-path="url(#p348d1728ed)" style="fill:#db4437;stroke:#fff;stroke-linejoin:miter"/></g><g id="patch_30"><path d="M 431.674886 298.975042 L 448.038523 298.975042 L 448.038523 201.520197 L 431.674886 201.520197 z" clip-path="url(#p348d1728ed)" style="fill:#db4437;stroke:#fff;stroke-linejoin:miter"/></g><g id="patch_31"><path d="M 464.402159 298.959851 L 480.765795 298.959851 L 480.765795 196.26027 L 464.402159 196.26027 z" clip-path="url(#p348d1728ed)" style="fill:#db4437;stroke:#fff;stroke-linejoin:miter"/></g><g id="patch_32"><path d="M 497.129432 298.956053 L 513.493068 298.956053 L 513.493068 186.359457 L 497.129432 186.359457 z" clip-path="url(#p348d1728ed)" style="fill:#db4437;stroke:#fff;stroke-linejoin:miter"/></g><g id="patch_33"><path d="M 529.856705 298.937065 L 546.220341 298.937065 L 546.220341 180.905844 L 529.856705 180.905844 z" clip-path="url(#p348d1728ed)" style="fill:#db4437;stroke:#fff;stroke-linejoin:miter"/></g><g id="patch_34"><path d="M 562.583977 298.91048 L 578.947614 298.91048 L 578.947614 167.264216 L 562.583977 167.264216 z" clip-path="url(#p348d1728ed)" style="fill:#db4437;stroke:#fff;stroke-linejoin:miter"/></g><g id="patch_35"><path d="M 71.674886 280.589987 L 88.038523 280.589987 L 88.038523 276.313686 L 71.674886 276.313686 z" clip-path="url(#p348d1728ed)" style="fill:#f4b400;stroke:#fff;stroke-linejoin:miter"/></g><g id="patch_36"><path d="M 104.402159 267.161035 L 120.765795 267.161035 L 120.765795 261.578298 L 104.402159 261.578298 z" clip-path="url(#p348d1728ed)" style="fill:#f4b400;stroke:#fff;stroke-linejoin:miter"/></g><g id="patch_37"><path d="M 137.129432 255.368926 L 153.493068 255.368926 L 153.493068 248.320246 L 137.129432 248.320246 z" clip-path="url(#p348d1728ed)" style="fill:#f4b400;stroke:#fff;stroke-linejoin:miter"/></g><g id="patch_38"><path d="M 169.856705 244.211047 L 186.220341 244.211047 L 186.220341 235.47995 L 169.856705 235.47995 z" clip-path="url(#p348d1728ed)" style="fill:#f4b400;stroke:#fff;stroke-linejoin:miter"/></g><g id="patch_39"><path d="M 202.583977 242.388113 L 218.947614 242.388113 L 218.947614 232.096127 L 202.583977 232.096127 z" clip-path="url(#p348d1728ed)" style="fill:#f4b400;stroke:#fff;stroke-linejoin:miter"/></g><g id="patch_40"><path d="M 235.31125 227.5236 L 251.674886 227.5236 L 251.674886 216.399901 L 235.31125 216.399901 z" clip-path="url(#p348d1728ed)" style="fill:#f4b400;stroke:#fff;stroke-linejoin:miter"/></g><g id="patch_41"><path d="M 268.038523 222.981454 L 284.402159 222.981454 L 284.402159 210.213316 L 268.038523 210.213316 z" clip-path="url(#p348d1728ed)" style="fill:#f4b400;stroke:#fff;stroke-linejoin:miter"/></g><g id="patch_42"><path d="M 300.765795 218.891245 L 317.129432 218.891245 L 317.129432 204.034327 L 300.765795 204.034327 z" clip-path="url(#p348d1728ed)" style="fill:#f4b400;stroke:#fff;stroke-linejoin:miter"/></g><g id="patch_43"><path d="M 333.493068 217.698742 L 349.856705 217.698742 L 349.856705 200.506189 L 333.493068 200.506189 z" clip-path="url(#p348d1728ed)" style="fill:#f4b400;stroke:#fff;stroke-linejoin:miter"/></g><g id="patch_44"><path d="M 366.220341 211.85016 L 382.583977 211.85016 L 382.583977 192.181454 L 366.220341 192.181454 z" clip-path="url(#p348d1728ed)" style="fill:#f4b400;stroke:#fff;stroke-linejoin:miter"/></g><g id="patch_45"><path d="M 398.947614 204.076103 L 415.31125 204.076103 L 415.31125 182.721183 L 398.947614 182.721183 z" clip-path="url(#p348d1728ed)" style="fill:#f4b400;stroke:#fff;stroke-linejoin:miter"/></g><g id="patch_46"><path d="M 431.674886 201.520197 L 448.038523 201.520197 L 448.038523 178.433489 L 431.674886 178.433489 z" clip-path="url(#p348d1728ed)" style="fill:#f4b400;stroke:#fff;stroke-linejoin:miter"/></g><g id="patch_47"><path d="M 464.402159 196.26027 L 480.765795 196.26027 L 480.765795 172.045622 L 464.402159 172.045622 z" clip-path="url(#p348d1728ed)" style="fill:#f4b400;stroke:#fff;stroke-linejoin:miter"/></g><g id="patch_48"><path d="M 497.129432 186.359457 L 513.493068 186.359457 L 513.493068 160.625696 L 497.129432 160.625696 z" clip-path="url(#p348d1728ed)" style="fill:#f4b400;stroke:#fff;stroke-linejoin:miter"/></g><g id="patch_49"><path d="M 529.856705 180.905844 L 546.220341 180.905844 L 546.220341 150.572971 L 529.856705 150.572971 z" clip-path="url(#p348d1728ed)" style="fill:#f4b400;stroke:#fff;stroke-linejoin:miter"/></g><g id="patch_50"><path d="M 562.583977 167.264216 L 578.947614 167.264216 L 578.947614 135.924931 L 562.583977 135.924931 z" clip-path="url(#p348d1728ed)" style="fill:#f4b400;stroke:#fff;stroke-linejoin:miter"/></g><g id="patch_51"><path d="M 71.674886 276.313686 L 88.038523 276.313686 L 88.038523 272.914672 L 71.674886 272.914672 z" clip-path="url(#p348d1728ed)" style="fill:#0f9d58;stroke:#fff;stroke-linejoin:miter"/></g><g id="patch_52"><path d="M 104.402159 261.578298 L 120.765795 261.578298 L 120.765795 256.553834 L 104.402159 256.553834 z" clip-path="url(#p348d1728ed)" style="fill:#0f9d58;stroke:#fff;stroke-linejoin:miter"/></g><g id="patch_53"><path d="M 137.129432 248.320246 L 153.493068 248.320246 L 153.493068 242.312157 L 137.129432 242.312157 z" clip-path="url(#p348d1728ed)" style="fill:#0f9d58;stroke:#fff;stroke-linejoin:miter"/></g><g id="patch_54"><path d="M 169.856705 235.47995 L 186.220341 235.47995 L 186.220341 226.524783 L 169.856705 226.524783 z" clip-path="url(#p348d1728ed)" style="fill:#0f9d58;stroke:#fff;stroke-linejoin:miter"/></g><g id="patch_55"><path d="M 202.583977 232.096127 L 218.947614 232.096127 L 218.947614 222.958668 L 202.583977 222.958668 z" clip-path="url(#p348d1728ed)" style="fill:#0f9d58;stroke:#fff;stroke-linejoin:miter"/></g><g id="patch_56"><path d="M 235.31125 216.399901 L 251.674886 216.399901 L 251.674886 206.54466 L 235.31125 206.54466 z" clip-path="url(#p348d1728ed)" style="fill:#0f9d58;stroke:#fff;stroke-linejoin:miter"/></g><g id="patch_57"><path d="M 268.038523 210.213316 L 284.402159 210.213316 L 284.402159 198.933908 L 268.038523 198.933908 z" clip-path="url(#p348d1728ed)" style="fill:#0f9d58;stroke:#fff;stroke-linejoin:miter"/></g><g id="patch_58"><path d="M 300.765795 204.034327 L 317.129432 204.034327 L 317.129432 190.950973 L 300.765795 190.950973 z" clip-path="url(#p348d1728ed)" style="fill:#0f9d58;stroke:#fff;stroke-linejoin:miter"/></g><g id="patch_59"><path d="M 333.493068 200.506189 L 349.856705 200.506189 L 349.856705 184.414993 L 333.493068 184.414993 z" clip-path="url(#p348d1728ed)" style="fill:#0f9d58;stroke:#fff;stroke-linejoin:miter"/></g><g id="patch_60"><path d="M 366.220341 192.181454 L 382.583977 192.181454 L 382.583977 173.773612 L 366.220341 173.773612 z" clip-path="url(#p348d1728ed)" style="fill:#0f9d58;stroke:#fff;stroke-linejoin:miter"/></g><g id="patch_61"><path d="M 398.947614 182.721183 L 415.31125 182.721183 L 415.31125 161.685277 L 398.947614 161.685277 z" clip-path="url(#p348d1728ed)" style="fill:#0f9d58;stroke:#fff;stroke-linejoin:miter"/></g><g id="patch_62"><path d="M 431.674886 178.433489 L 448.038523 178.433489 L 448.038523 153.117484 L 431.674886 153.117484 z" clip-path="url(#p348d1728ed)" style="fill:#0f9d58;stroke:#fff;stroke-linejoin:miter"/></g><g id="patch_63"><path d="M 464.402159 172.045622 L 480.765795 172.045622 L 480.765795 143.463526 L 464.402159 143.463526 z" clip-path="url(#p348d1728ed)" style="fill:#0f9d58;stroke:#fff;stroke-linejoin:miter"/></g><g id="patch_64"><path d="M 497.129432 160.625696 L 513.493068 160.625696 L 513.493068 131.538495 L 497.129432 131.538495 z" clip-path="url(#p348d1728ed)" style="fill:#0f9d58;stroke:#fff;stroke-linejoin:miter"/></g><g id="patch_65"><path d="M 529.856705 150.572971 L 546.220341 150.572971 L 546.220341 115.458692 L 529.856705 115.458692 z" clip-path="url(#p348d1728ed)" style="fill:#0f9d58;stroke:#fff;stroke-linejoin:miter"/></g><g id="patch_66"><path d="M 562.583977 135.924931 L 578.947614 135.924931 L 578.947614 98.380073 L 562.583977 98.380073 z" clip-path="url(#p348d1728ed)" style="fill:#0f9d58;stroke:#fff;stroke-linejoin:miter"/></g><g id="patch_67"><path d="M 71.674886 272.914672 L 88.038523 272.914672 L 88.038523 257.009568 L 71.674886 257.009568 z" clip-path="url(#p348d1728ed)" style="fill:#ff6d00;stroke:#fff;stroke-linejoin:miter"/></g><g id="patch_68"><path d="M 104.402159 256.553834 L 120.765795 256.553834 L 120.765795 236.512946 L 104.402159 236.512946 z" clip-path="url(#p348d1728ed)" style="fill:#ff6d00;stroke:#fff;stroke-linejoin:miter"/></g><g id="patch_69"><path d="M 137.129432 242.312157 L 153.493068 242.312157 L 153.493068 219.70397 L 137.129432 219.70397 z" clip-path="url(#p348d1728ed)" style="fill:#ff6d00;stroke:#fff;stroke-linejoin:miter"/></g><g id="patch_70"><path d="M 169.856705 226.524783 L 186.220341 226.524783 L 186.220341 198.857952 L 169.856705 198.857952 z" clip-path="url(#p348d1728ed)" style="fill:#ff6d00;stroke:#fff;stroke-linejoin:miter"/></g><g id="patch_71"><path d="M 202.583977 222.958668 L 218.947614 222.958668 L 218.947614 192.663772 L 202.583977 192.663772 z" clip-path="url(#p348d1728ed)" style="fill:#ff6d00;stroke:#fff;stroke-linejoin:miter"/></g><g id="patch_72"><path d="M 235.31125 206.54466 L 251.674886 206.54466 L 251.674886 174.780024 L 235.31125 174.780024 z" clip-path="url(#p348d1728ed)" style="fill:#ff6d00;stroke:#fff;stroke-linejoin:miter"/></g><g id="patch_73"><path d="M 268.038523 198.933908 L 284.402159 198.933908 L 284.402159 163.105647 L 268.038523 163.105647 z" clip-path="url(#p348d1728ed)" style="fill:#ff6d00;stroke:#fff;stroke-linejoin:miter"/></g><g id="patch_74"><path d="M 300.765795 190.950973 L 317.129432 190.950973 L 317.129432 151.055289 L 300.765795 151.055289 z" clip-path="url(#p348d1728ed)" style="fill:#ff6d00;stroke:#fff;stroke-linejoin:miter"/></g><g id="patch_75"><path d="M 333.493068 184.414993 L 349.856705 184.414993 L 349.856705 137.463033 L 333.493068 137.463033 z" clip-path="url(#p348d1728ed)" style="fill:#ff6d00;stroke:#fff;stroke-linejoin:miter"/></g><g id="patch_76"><path d="M 366.220341 173.773612 L 382.583977 173.773612 L 382.583977 121.345252 L 366.220341 121.345252 z" clip-path="url(#p348d1728ed)" style="fill:#ff6d00;stroke:#fff;stroke-linejoin:miter"/></g><g id="patch_77"><path d="M 398.947614 161.685277 L 415.31125 161.685277 L 415.31125 104.885671 L 398.947614 104.885671 z" clip-path="url(#p348d1728ed)" style="fill:#ff6d00;stroke:#fff;stroke-linejoin:miter"/></g><g id="patch_78"><path d="M 431.674886 153.117484 L 448.038523 153.117484 L 448.038523 90.674377 L 431.674886 90.674377 z" clip-path="url(#p348d1728ed)" style="fill:#ff6d00;stroke:#fff;stroke-linejoin:miter"/></g><g id="patch_79"><path d="M 464.402159 143.463526 L 480.765795 143.463526 L 480.765795 77.332774 L 464.402159 77.332774 z" clip-path="url(#p348d1728ed)" style="fill:#ff6d00;stroke:#fff;stroke-linejoin:miter"/></g><g id="patch_80"><path d="M 497.129432 131.538495 L 513.493068 131.538495 L 513.493068 63.748113 L 497.129432 63.748113 z" clip-path="url(#p348d1728ed)" style="fill:#ff6d00;stroke:#fff;stroke-linejoin:miter"/></g><g id="patch_81"><path d="M 529.856705 115.458692 L 546.220341 115.458692 L 546.220341 42.002021 L 529.856705 42.002021 z" clip-path="url(#p348d1728ed)" style="fill:#ff6d00;stroke:#fff;stroke-linejoin:miter"/></g><g id="patch_82"><path d="M 562.583977 98.380073 L 578.947614 98.380073 L 578.947614 24.068902 L 562.583977 24.068902 z" clip-path="url(#p348d1728ed)" style="fill:#ff6d00;stroke:#fff;stroke-linejoin:miter"/></g><g id="patch_83"><path d="M 71.674886 257.009568 L 88.038523 257.009568 L 88.038523 256.808285 L 71.674886 256.808285 z" clip-path="url(#p348d1728ed)" style="fill:#46bdc6;stroke:#fff;stroke-linejoin:miter"/></g><g id="patch_84"><path d="M 104.402159 236.512946 L 120.765795 236.512946 L 120.765795 236.171146 L 104.402159 236.171146 z" clip-path="url(#p348d1728ed)" style="fill:#46bdc6;stroke:#fff;stroke-linejoin:miter"/></g><g id="patch_85"><path d="M 137.129432 219.70397 L 153.493068 219.70397 L 153.493068 219.27482 L 137.129432 219.27482 z" clip-path="url(#p348d1728ed)" style="fill:#46bdc6;stroke:#fff;stroke-linejoin:miter"/></g><g id="patch_86"><path d="M 169.856705 198.857952 L 186.220341 198.857952 L 186.220341 198.292083 L 169.856705 198.292083 z" clip-path="url(#p348d1728ed)" style="fill:#46bdc6;stroke:#fff;stroke-linejoin:miter"/></g><g id="patch_87"><path d="M 202.583977 192.663772 L 218.947614 192.663772 L 218.947614 192.002959 L 202.583977 192.002959 z" clip-path="url(#p348d1728ed)" style="fill:#46bdc6;stroke:#fff;stroke-linejoin:miter"/></g><g id="patch_88"><path d="M 235.31125 174.780024 L 251.674886 174.780024 L 251.674886 174.096423 L 235.31125 174.096423 z" clip-path="url(#p348d1728ed)" style="fill:#46bdc6;stroke:#fff;stroke-linejoin:miter"/></g><g id="patch_89"><path d="M 268.038523 163.105647 L 284.402159 163.105647 L 284.402159 162.31191 L 268.038523 162.31191 z" clip-path="url(#p348d1728ed)" style="fill:#46bdc6;stroke:#fff;stroke-linejoin:miter"/></g><g id="patch_90"><path d="M 300.765795 151.055289 L 317.129432 151.055289 L 317.129432 150.124833 L 300.765795 150.124833 z" clip-path="url(#p348d1728ed)" style="fill:#46bdc6;stroke:#fff;stroke-linejoin:miter"/></g><g id="patch_91"><path d="M 333.493068 137.463033 L 349.856705 137.463033 L 349.856705 136.350283 L 333.493068 136.350283 z" clip-path="url(#p348d1728ed)" style="fill:#46bdc6;stroke:#fff;stroke-linejoin:miter"/></g><g id="patch_92"><path d="M 366.220341 121.345252 L 382.583977 121.345252 L 382.583977 120.107176 L 366.220341 120.107176 z" clip-path="url(#p348d1728ed)" style="fill:#46bdc6;stroke:#fff;stroke-linejoin:miter"/></g><g id="patch_93"><path d="M 398.947614 104.885671 L 415.31125 104.885671 L 415.31125 103.529864 L 398.947614 103.529864 z" clip-path="url(#p348d1728ed)" style="fill:#46bdc6;stroke:#fff;stroke-linejoin:miter"/></g><g id="patch_94"><path d="M 431.674886 90.674377 L 448.038523 90.674377 L 448.038523 89.261602 L 431.674886 89.261602 z" clip-path="url(#p348d1728ed)" style="fill:#46bdc6;stroke:#fff;stroke-linejoin:miter"/></g><g id="patch_95"><path d="M 464.402159 77.332774 L 480.765795 77.332774 L 480.765795 75.813661 L 464.402159 75.813661 z" clip-path="url(#p348d1728ed)" style="fill:#46bdc6;stroke:#fff;stroke-linejoin:miter"/></g><g id="patch_96"><path d="M 497.129432 63.748113 L 513.493068 63.748113 L 513.493068 62.187225 L 497.129432 62.187225 z" clip-path="url(#p348d1728ed)" style="fill:#46bdc6;stroke:#fff;stroke-linejoin:miter"/></g><g id="patch_97"><path d="M 529.856705 42.002021 L 546.220341 42.002021 L 546.220341 40.384167 L 529.856705 40.384167 z" clip-path="url(#p348d1728ed)" style="fill:#46bdc6;stroke:#fff;stroke-linejoin:miter"/></g><g id="patch_98"><path d="M 562.583977 24.068902 L 578.947614 24.068902 L 578.947614 22.318125 L 562.583977 22.318125 z" clip-path="url(#p348d1728ed)" style="fill:#46bdc6;stroke:#fff;stroke-linejoin:miter"/></g><g id="patch_99"><path d="M 71.674886 256.808285 L 88.038523 256.808285 L 88.038523 256.808285 L 71.674886 256.808285 z" clip-path="url(#p348d1728ed)" style="fill:#ab30c4;stroke:#fff;stroke-linejoin:miter"/></g><g id="patch_100"><path d="M 104.402159 236.171146 L 120.765795 236.171146 L 120.765795 236.171146 L 104.402159 236.171146 z" clip-path="url(#p348d1728ed)" style="fill:#ab30c4;stroke:#fff;stroke-linejoin:miter"/></g><g id="patch_101"><path d="M 137.129432 219.27482 L 153.493068 219.27482 L 153.493068 219.27482 L 137.129432 219.27482 z" clip-path="url(#p348d1728ed)" style="fill:#ab30c4;stroke:#fff;stroke-linejoin:miter"/></g><g id="patch_102"><path d="M 169.856705 198.292083 L 186.220341 198.292083 L 186.220341 198.292083 L 169.856705 198.292083 z" clip-path="url(#p348d1728ed)" style="fill:#ab30c4;stroke:#fff;stroke-linejoin:miter"/></g><g id="patch_103"><path d="M 202.583977 192.002959 L 218.947614 192.002959 L 218.947614 192.002959 L 202.583977 192.002959 z" clip-path="url(#p348d1728ed)" style="fill:#ab30c4;stroke:#fff;stroke-linejoin:miter"/></g><g id="patch_104"><path d="M 235.31125 174.096423 L 251.674886 174.096423 L 251.674886 174.096423 L 235.31125 174.096423 z" clip-path="url(#p348d1728ed)" style="fill:#ab30c4;stroke:#fff;stroke-linejoin:miter"/></g><g id="patch_105"><path d="M 268.038523 162.31191 L 284.402159 162.31191 L 284.402159 162.31191 L 268.038523 162.31191 z" clip-path="url(#p348d1728ed)" style="fill:#ab30c4;stroke:#fff;stroke-linejoin:miter"/></g><g id="patch_106"><path d="M 300.765795 150.124833 L 317.129432 150.124833 L 317.129432 150.124833 L 300.765795 150.124833 z" clip-path="url(#p348d1728ed)" style="fill:#ab30c4;stroke:#fff;stroke-linejoin:miter"/></g><g id="patch_107"><path d="M 333.493068 136.350283 L 349.856705 136.350283 L 349.856705 136.350283 L 333.493068 136.350283 z" clip-path="url(#p348d1728ed)" style="fill:#ab30c4;stroke:#fff;stroke-linejoin:miter"/></g><g id="patch_108"><path d="M 366.220341 120.107176 L 382.583977 120.107176 L 382.583977 120.107176 L 366.220341 120.107176 z" clip-path="url(#p348d1728ed)" style="fill:#ab30c4;stroke:#fff;stroke-linejoin:miter"/></g><g id="patch_109"><path d="M 398.947614 103.529864 L 415.31125 103.529864 L 415.31125 103.529864 L 398.947614 103.529864 z" clip-path="url(#p348d1728ed)" style="fill:#ab30c4;stroke:#fff;stroke-linejoin:miter"/></g><g id="patch_110"><path d="M 431.674886 89.261602 L 448.038523 89.261602 L 448.038523 89.261602 L 431.674886 89.261602 z" clip-path="url(#p348d1728ed)" style="fill:#ab30c4;stroke:#fff;stroke-linejoin:miter"/></g><g id="patch_111"><path d="M 464.402159 75.813661 L 480.765795 75.813661 L 480.765795 75.813661 L 464.402159 75.813661 z" clip-path="url(#p348d1728ed)" style="fill:#ab30c4;stroke:#fff;stroke-linejoin:miter"/></g><g id="patch_112"><path d="M 497.129432 62.187225 L 513.493068 62.187225 L 513.493068 62.187225 L 497.129432 62.187225 z" clip-path="url(#p348d1728ed)" style="fill:#ab30c4;stroke:#fff;stroke-linejoin:miter"/></g><g id="patch_113"><path d="M 529.856705 40.384167 L 546.220341 40.384167 L 546.220341 40.384167 L 529.856705 40.384167 z" clip-path="url(#p348d1728ed)" style="fill:#ab30c4;stroke:#fff;stroke-linejoin:miter"/></g><g id="patch_114"><path d="M 562.583977 22.318125 L 578.947614 22.318125 L 578.947614 22.318125 L 562.583977 22.318125 z" clip-path="url(#p348d1728ed)" style="fill:#ab30c4;stroke:#fff;stroke-linejoin:miter"/></g><g id="patch_115"><path d="M 46.31125 299.518125 L 46.31125 22.318125" style="fill:none;stroke:#000;stroke-linecap:square;stroke-linejoin:miter;stroke-width:2"/></g><g id="patch_116"><path d="M 604.31125 299.518125 L 604.31125 22.318125" style="fill:none;stroke:#000;stroke-linecap:square;stroke-linejoin:miter;stroke-width:2"/></g><g id="patch_117"><path d="M 46.31125 299.518125 L 604.31125 299.518125" style="fill:none;stroke:#000;stroke-linecap:square;stroke-linejoin:miter;stroke-width:2"/></g><g id="patch_118"><path d="M 46.31125 22.318125 L 604.31125 22.318125" style="fill:none;stroke:#000;stroke-linecap:square;stroke-linejoin:miter;stroke-width:2"/></g><g id="legend_1"><g id="patch_119"><path d="M 228.695625 414.481875 L 596.61125 414.481875 Q 598.81125 414.481875 598.81125 412.281875 L 598.81125 348.798125 Q 598.81125 346.598125 596.61125 346.598125 L 228.695625 346.598125 Q 226.495625 346.598125 226.495625 348.798125 L 226.495625 412.281875 Q 226.495625 414.481875 228.695625 414.481875 z" style="fill:#eaeaf2;opacity:.8;stroke:#ccc;stroke-linejoin:miter"/></g><g id="patch_120"><path d="M 230.895625 359.356406 L 252.895625 359.356406 L 252.895625 351.656406 L 230.895625 351.656406 z" style="fill:#4285f4;stroke:#4285f4;stroke-linejoin:miter"/></g><g id="text_27"><g style="fill:#262626" transform="translate(261.695625 359.356406)scale(0.11 -0.11)"><defs><path id="DejaVuSans-83" d="M 53.515625 70.515625 L 53.515625 60.890625 Q 47.90625 63.578125 42.921875 64.890625 Q 37.9375 66.21875 33.296875 66.21875 Q 25.25 66.21875 20.875 63.09375 Q 16.5 59.96875 16.5 54.203125 Q 16.5 49.359375 19.40625 46.890625 Q 22.3125 44.4375 30.421875 42.921875 L 36.375 41.703125 Q 47.40625 39.59375 52.65625 34.296875 Q 57.90625 29 57.90625 20.125 Q 57.90625 9.515625 50.796875 4.046875 Q 43.703125 -1.421875 29.984375 -1.421875 Q 24.8125 -1.421875 18.96875 -0.25 Q 13.140625 0.921875 6.890625 3.21875 L 6.890625 13.375 Q 12.890625 10.015625 18.65625 8.296875 Q 24.421875 6.59375 29.984375 6.59375 Q 38.421875 6.59375 43.015625 9.90625 Q 47.609375 13.234375 47.609375 19.390625 Q 47.609375 24.75 44.3125 27.78125 Q 41.015625 30.8125 33.5 32.328125 L 27.484375 33.5 Q 16.453125 35.6875 11.515625 40.375 Q 6.59375 45.0625 6.59375 53.421875 Q 6.59375 63.09375 13.40625 68.65625 Q 20.21875 74.21875 32.171875 74.21875 Q 37.3125 74.21875 42.625 73.28125 Q 47.953125 72.359375 53.515625 70.515625 z"/></defs><use xlink:href="#DejaVuSans-67"/><use x="69.824" xlink:href="#DejaVuSans-108"/><use x="97.607" xlink:href="#DejaVuSans-105"/><use x="125.391" xlink:href="#DejaVuSans-101"/><use x="186.914" xlink:href="#DejaVuSans-110"/><use x="250.293" xlink:href="#DejaVuSans-116"/><use x="289.502" xlink:href="#DejaVuSans-32"/><use x="321.289" xlink:href="#DejaVuSans-83"/><use x="384.766" xlink:href="#DejaVuSans-101"/><use x="446.289" xlink:href="#DejaVuSans-110"/><use x="509.668" xlink:href="#DejaVuSans-100"/></g></g><g id="patch_121"><path d="M 230.895625 375.502344 L 252.895625 375.502344 L 252.895625 367.802344 L 230.895625 367.802344 z" style="fill:#ab30c4;stroke:#ab30c4;stroke-linejoin:miter"/></g><g id="text_28"><g style="fill:#262626" transform="translate(261.695625 375.502344)scale(0.11 -0.11)"><defs><path id="DejaVuSans-82" d="M 44.390625 34.1875 Q 47.5625 33.109375 50.5625 29.59375 Q 53.5625 26.078125 56.59375 19.921875 L 66.609375 0 L 56 0 L 46.6875 18.703125 Q 43.0625 26.03125 39.671875 28.421875 Q 36.28125 30.8125 30.421875 30.8125 L 19.671875 30.8125 L 19.671875 0 L 9.8125 0 L 9.8125 72.90625 L 32.078125 72.90625 Q 44.578125 72.90625 50.734375 67.671875 Q 56.890625 62.453125 56.890625 51.90625 Q 56.890625 45.015625 53.6875 40.46875 Q 50.484375 35.9375 44.390625 34.1875 z M 19.671875 64.796875 L 19.671875 38.921875 L 32.078125 38.921875 Q 39.203125 38.921875 42.84375 42.21875 Q 46.484375 45.515625 46.484375 51.90625 Q 46.484375 58.296875 42.84375 61.546875 Q 39.203125 64.796875 32.078125 64.796875 z"/></defs><use xlink:href="#DejaVuSans-67"/><use x="69.824" xlink:href="#DejaVuSans-108"/><use x="97.607" xlink:href="#DejaVuSans-105"/><use x="125.391" xlink:href="#DejaVuSans-101"/><use x="186.914" xlink:href="#DejaVuSans-110"/><use x="250.293" xlink:href="#DejaVuSans-116"/><use x="289.502" xlink:href="#DejaVuSans-32"/><use x="321.289" xlink:href="#DejaVuSans-82"/><use x="386.271" xlink:href="#DejaVuSans-101"/><use x="447.795" xlink:href="#DejaVuSans-99"/><use x="502.775" xlink:href="#DejaVuSans-118"/></g></g><g id="patch_122"><path d="M 230.895625 391.648281 L 252.895625 391.648281 L 252.895625 383.948281 L 230.895625 383.948281 z" style="fill:#db4437;stroke:#db4437;stroke-linejoin:miter"/></g><g id="text_29"><g style="fill:#262626" transform="translate(261.695625 391.648281)scale(0.11 -0.11)"><defs><path id="DejaVuSans-78" d="M 9.8125 72.90625 L 23.09375 72.90625 L 55.421875 11.921875 L 55.421875 72.90625 L 64.984375 72.90625 L 64.984375 0 L 51.703125 0 L 19.390625 60.984375 L 19.390625 0 L 9.8125 0 z"/><path id="DejaVuSans-119" d="M 4.203125 54.6875 L 13.1875 54.6875 L 24.421875 12.015625 L 35.59375 54.6875 L 46.1875 54.6875 L 57.421875 12.015625 L 68.609375 54.6875 L 77.59375 54.6875 L 63.28125 0 L 52.6875 0 L 40.921875 44.828125 L 29.109375 0 L 18.5 0 z"/><path id="DejaVuSans-107" d="M 9.078125 75.984375 L 18.109375 75.984375 L 18.109375 31.109375 L 44.921875 54.6875 L 56.390625 54.6875 L 27.390625 29.109375 L 57.625 0 L 45.90625 0 L 18.109375 26.703125 L 18.109375 0 L 9.078125 0 z"/><path id="DejaVuSans-43" d="M 46 62.703125 L 46 35.5 L 73.1875 35.5 L 73.1875 27.203125 L 46 27.203125 L 46 0 L 37.796875 0 L 37.796875 27.203125 L 10.59375 27.203125 L 10.59375 35.5 L 37.796875 35.5 L 37.796875 62.703125 z"/><path id="DejaVuSans-47" d="M 25.390625 72.90625 L 33.6875 72.90625 L 8.296875 -9.28125 L 0 -9.28125 z"/></defs><use xlink:href="#DejaVuSans-78"/><use x="74.805" xlink:href="#DejaVuSans-101"/><use x="136.328" xlink:href="#DejaVuSans-116"/><use x="175.537" xlink:href="#DejaVuSans-119"/><use x="257.324" xlink:href="#DejaVuSans-111"/><use x="318.506" xlink:href="#DejaVuSans-114"/><use x="359.619" xlink:href="#DejaVuSans-107"/><use x="417.529" xlink:href="#DejaVuSans-43"/><use x="501.318" xlink:href="#DejaVuSans-115"/><use x="553.418" xlink:href="#DejaVuSans-101"/><use x="614.941" xlink:href="#DejaVuSans-114"/><use x="656.055" xlink:href="#DejaVuSans-118"/><use x="715.234" xlink:href="#DejaVuSans-101"/><use x="776.758" xlink:href="#DejaVuSans-114"/><use x="817.871" xlink:href="#DejaVuSans-32"/><use x="849.658" xlink:href="#DejaVuSans-83"/><use x="913.135" xlink:href="#DejaVuSans-101"/><use x="974.658" xlink:href="#DejaVuSans-110"/><use x="1038.037" xlink:href="#DejaVuSans-100"/><use x="1101.514" xlink:href="#DejaVuSans-47"/><use x="1135.205" xlink:href="#DejaVuSans-114"/><use x="1174.068" xlink:href="#DejaVuSans-101"/><use x="1235.592" xlink:href="#DejaVuSans-99"/><use x="1290.572" xlink:href="#DejaVuSans-118"/></g></g><g id="patch_123"><path d="M 230.895625 407.794219 L 252.895625 407.794219 L 252.895625 400.094219 L 230.895625 400.094219 z" style="fill:#f4b400;stroke:#f4b400;stroke-linejoin:miter"/></g><g id="text_30"><g style="fill:#262626" transform="translate(261.695625 407.794219)scale(0.11 -0.11)"><defs><path id="DejaVuSans-81" d="M 39.40625 66.21875 Q 28.65625 66.21875 22.328125 58.203125 Q 16.015625 50.203125 16.015625 36.375 Q 16.015625 22.609375 22.328125 14.59375 Q 28.65625 6.59375 39.40625 6.59375 Q 50.140625 6.59375 56.421875 14.59375 Q 62.703125 22.609375 62.703125 36.375 Q 62.703125 50.203125 56.421875 58.203125 Q 50.140625 66.21875 39.40625 66.21875 z M 53.21875 1.3125 L 66.21875 -12.890625 L 54.296875 -12.890625 L 43.5 -1.21875 Q 41.890625 -1.3125 41.03125 -1.359375 Q 40.1875 -1.421875 39.40625 -1.421875 Q 24.03125 -1.421875 14.8125 8.859375 Q 5.609375 19.140625 5.609375 36.375 Q 5.609375 53.65625 14.8125 63.9375 Q 24.03125 74.21875 39.40625 74.21875 Q 54.734375 74.21875 63.90625 63.9375 Q 73.09375 53.65625 73.09375 36.375 Q 73.09375 23.6875 67.984375 14.640625 Q 62.890625 5.609375 53.21875 1.3125 z"/></defs><use xlink:href="#DejaVuSans-83"/><use x="63.477" xlink:href="#DejaVuSans-101"/><use x="125" xlink:href="#DejaVuSans-114"/><use x="166.113" xlink:href="#DejaVuSans-118"/><use x="225.293" xlink:href="#DejaVuSans-101"/><use x="286.816" xlink:href="#DejaVuSans-114"/><use x="327.93" xlink:href="#DejaVuSans-32"/><use x="359.717" xlink:href="#DejaVuSans-81"/><use x="438.428" xlink:href="#DejaVuSans-117"/><use x="501.807" xlink:href="#DejaVuSans-101"/><use x="563.33" xlink:href="#DejaVuSans-117"/><use x="626.709" xlink:href="#DejaVuSans-101"/></g></g><g id="patch_124"><path d="M 432.173281 359.356406 L 454.173281 359.356406 L 454.173281 351.656406 L 432.173281 351.656406 z" style="fill:#0f9d58;stroke:#0f9d58;stroke-linejoin:miter"/></g><g id="text_31"><g style="fill:#262626" transform="translate(462.973281 359.356406)scale(0.11 -0.11)"><defs><path id="DejaVuSans-112" d="M 18.109375 8.203125 L 18.109375 -20.796875 L 9.078125 -20.796875 L 9.078125 54.6875 L 18.109375 54.6875 L 18.109375 46.390625 Q 20.953125 51.265625 25.265625 53.625 Q 29.59375 56 35.59375 56 Q 45.5625 56 51.78125 48.09375 Q 58.015625 40.1875 58.015625 27.296875 Q 58.015625 14.40625 51.78125 6.484375 Q 45.5625 -1.421875 35.59375 -1.421875 Q 29.59375 -1.421875 25.265625 0.953125 Q 20.953125 3.328125 18.109375 8.203125 z M 48.6875 27.296875 Q 48.6875 37.203125 44.609375 42.84375 Q 40.53125 48.484375 33.40625 48.484375 Q 26.265625 48.484375 22.1875 42.84375 Q 18.109375 37.203125 18.109375 27.296875 Q 18.109375 17.390625 22.1875 11.75 Q 26.265625 6.109375 33.40625 6.109375 Q 40.53125 6.109375 44.609375 11.75 Q 48.6875 17.390625 48.6875 27.296875 z"/><path id="DejaVuSans-73" d="M 9.8125 72.90625 L 19.671875 72.90625 L 19.671875 0 L 9.8125 0 z"/></defs><use xlink:href="#DejaVuSans-83"/><use x="63.477" xlink:href="#DejaVuSans-101"/><use x="125" xlink:href="#DejaVuSans-114"/><use x="166.113" xlink:href="#DejaVuSans-118"/><use x="225.293" xlink:href="#DejaVuSans-101"/><use x="286.816" xlink:href="#DejaVuSans-114"/><use x="327.93" xlink:href="#DejaVuSans-32"/><use x="359.717" xlink:href="#DejaVuSans-67"/><use x="429.541" xlink:href="#DejaVuSans-111"/><use x="490.723" xlink:href="#DejaVuSans-109"/><use x="588.135" xlink:href="#DejaVuSans-112"/><use x="651.611" xlink:href="#DejaVuSans-117"/><use x="714.99" xlink:href="#DejaVuSans-116"/><use x="754.199" xlink:href="#DejaVuSans-101"/><use x="815.723" xlink:href="#DejaVuSans-32"/><use x="847.51" xlink:href="#DejaVuSans-73"/><use x="877.002" xlink:href="#DejaVuSans-110"/><use x="940.381" xlink:href="#DejaVuSans-112"/><use x="1003.857" xlink:href="#DejaVuSans-117"/><use x="1067.236" xlink:href="#DejaVuSans-116"/></g></g><g id="patch_125"><path d="M 432.173281 375.502344 L 454.173281 375.502344 L 454.173281 367.802344 L 432.173281 367.802344 z" style="fill:#ff6d00;stroke:#ff6d00;stroke-linejoin:miter"/></g><g id="text_32"><g style="fill:#262626" transform="translate(462.973281 375.502344)scale(0.11 -0.11)"><defs><path id="DejaVuSans-102" d="M 37.109375 75.984375 L 37.109375 68.5 L 28.515625 68.5 Q 23.6875 68.5 21.796875 66.546875 Q 19.921875 64.59375 19.921875 59.515625 L 19.921875 54.6875 L 34.71875 54.6875 L 34.71875 47.703125 L 19.921875 47.703125 L 19.921875 0 L 10.890625 0 L 10.890625 47.703125 L 2.296875 47.703125 L 2.296875 54.6875 L 10.890625 54.6875 L 10.890625 58.5 Q 10.890625 67.625 15.140625 71.796875 Q 19.390625 75.984375 28.609375 75.984375 z"/></defs><use xlink:href="#DejaVuSans-83"/><use x="63.477" xlink:href="#DejaVuSans-101"/><use x="125" xlink:href="#DejaVuSans-114"/><use x="166.113" xlink:href="#DejaVuSans-118"/><use x="225.293" xlink:href="#DejaVuSans-101"/><use x="286.816" xlink:href="#DejaVuSans-114"/><use x="327.93" xlink:href="#DejaVuSans-32"/><use x="359.717" xlink:href="#DejaVuSans-67"/><use x="429.541" xlink:href="#DejaVuSans-111"/><use x="490.723" xlink:href="#DejaVuSans-109"/><use x="588.135" xlink:href="#DejaVuSans-112"/><use x="651.611" xlink:href="#DejaVuSans-117"/><use x="714.99" xlink:href="#DejaVuSans-116"/><use x="754.199" xlink:href="#DejaVuSans-101"/><use x="815.723" xlink:href="#DejaVuSans-32"/><use x="847.51" xlink:href="#DejaVuSans-73"/><use x="877.002" xlink:href="#DejaVuSans-110"/><use x="940.381" xlink:href="#DejaVuSans-102"/><use x="975.586" xlink:href="#DejaVuSans-101"/><use x="1037.109" xlink:href="#DejaVuSans-114"/></g></g><g id="patch_126"><path d="M 432.173281 391.648281 L 454.173281 391.648281 L 454.173281 383.948281 L 432.173281 383.948281 z" style="fill:#46bdc6;stroke:#46bdc6;stroke-linejoin:miter"/></g><g id="text_33"><g style="fill:#262626" transform="translate(462.973281 391.648281)scale(0.11 -0.11)"><defs><path id="DejaVuSans-79" d="M 39.40625 66.21875 Q 28.65625 66.21875 22.328125 58.203125 Q 16.015625 50.203125 16.015625 36.375 Q 16.015625 22.609375 22.328125 14.59375 Q 28.65625 6.59375 39.40625 6.59375 Q 50.140625 6.59375 56.421875 14.59375 Q 62.703125 22.609375 62.703125 36.375 Q 62.703125 50.203125 56.421875 58.203125 Q 50.140625 66.21875 39.40625 66.21875 z M 39.40625 74.21875 Q 54.734375 74.21875 63.90625 63.9375 Q 73.09375 53.65625 73.09375 36.375 Q 73.09375 19.140625 63.90625 8.859375 Q 54.734375 -1.421875 39.40625 -1.421875 Q 24.03125 -1.421875 14.8125 8.828125 Q 5.609375 19.09375 5.609375 36.375 Q 5.609375 53.65625 14.8125 63.9375 Q 24.03125 74.21875 39.40625 74.21875 z"/></defs><use xlink:href="#DejaVuSans-83"/><use x="63.477" xlink:href="#DejaVuSans-101"/><use x="125" xlink:href="#DejaVuSans-114"/><use x="166.113" xlink:href="#DejaVuSans-118"/><use x="225.293" xlink:href="#DejaVuSans-101"/><use x="286.816" xlink:href="#DejaVuSans-114"/><use x="327.93" xlink:href="#DejaVuSans-32"/><use x="359.717" xlink:href="#DejaVuSans-67"/><use x="429.541" xlink:href="#DejaVuSans-111"/><use x="490.723" xlink:href="#DejaVuSans-109"/><use x="588.135" xlink:href="#DejaVuSans-112"/><use x="651.611" xlink:href="#DejaVuSans-117"/><use x="714.99" xlink:href="#DejaVuSans-116"/><use x="754.199" xlink:href="#DejaVuSans-101"/><use x="815.723" xlink:href="#DejaVuSans-32"/><use x="847.51" xlink:href="#DejaVuSans-79"/><use x="926.221" xlink:href="#DejaVuSans-117"/><use x="989.6" xlink:href="#DejaVuSans-116"/><use x="1028.809" xlink:href="#DejaVuSans-112"/><use x="1092.285" xlink:href="#DejaVuSans-117"/><use x="1155.664" xlink:href="#DejaVuSans-116"/></g></g><g id="line2d_33"><path d="M 432.173281 403.944219 L 454.173281 403.944219" style="fill:none;stroke:#c1bc1f;stroke-linecap:round;stroke-width:1.5"/></g><g id="line2d_34"><defs><path id="mea063386d2" d="M 0 3 C 0.795609 3 1.55874 2.683901 2.12132 2.12132 C 2.683901 1.55874 3 0.795609 3 0 C 3 -0.795609 2.683901 -1.55874 2.12132 -2.12132 C 1.55874 -2.683901 0.795609 -3 0 -3 C -0.795609 -3 -1.55874 -2.683901 -2.12132 -2.12132 C -2.683901 -1.55874 -3 -0.795609 -3 0 C -3 0.795609 -2.683901 1.55874 -2.12132 2.12132 C -1.55874 2.683901 -0.795609 3 0 3 z" style="stroke:#c1bc1f"/></defs><g><use style="fill:#c1bc1f;stroke:#c1bc1f" x="443.173" y="403.944" xlink:href="#mea063386d2"/></g></g><g id="text_34"><g style="fill:#262626" transform="translate(462.973281 407.794219)scale(0.11 -0.11)"><use xlink:href="#DejaVuSans-73"/><use x="29.492" xlink:href="#DejaVuSans-110"/><use x="92.871" xlink:href="#DejaVuSans-102"/><use x="128.076" xlink:href="#DejaVuSans-101"/><use x="189.6" xlink:href="#DejaVuSans-114"/><use x="228.463" xlink:href="#DejaVuSans-101"/><use x="289.986" xlink:href="#DejaVuSans-110"/><use x="353.365" xlink:href="#DejaVuSans-99"/><use x="408.346" xlink:href="#DejaVuSans-101"/><use x="469.869" xlink:href="#DejaVuSans-115"/><use x="521.969" xlink:href="#DejaVuSans-47"/><use x="555.66" xlink:href="#DejaVuSans-115"/><use x="607.76" xlink:href="#DejaVuSans-101"/><use x="669.283" xlink:href="#DejaVuSans-99"/><use x="724.264" xlink:href="#DejaVuSans-111"/><use x="785.445" xlink:href="#DejaVuSans-110"/><use x="848.824" xlink:href="#DejaVuSans-100"/></g></g></g></g><g id="axes_2"><g id="matplotlib.axis_3"><g id="ytick_9"><g id="line2d_35"><defs><path id="mcf47c0c60c" d="M 0 0 L 6 0" style="stroke:#262626;stroke-width:1.25"/></defs><g><use style="fill:#262626;stroke:#262626;stroke-width:1.25" x="604.311" y="277.761" xlink:href="#mcf47c0c60c"/></g></g><g id="text_35"><g style="fill:#262626" transform="translate(613.81125 281.94061)scale(0.11 -0.11)"><use xlink:href="#DejaVuSans-49"/><use x="63.623" xlink:href="#DejaVuSans-53"/><use x="127.246" xlink:href="#DejaVuSans-48"/><use x="190.869" xlink:href="#DejaVuSans-48"/></g></g></g><g id="ytick_10"><g id="line2d_36"><g><use style="fill:#262626;stroke:#262626;stroke-width:1.25" x="604.311" y="219.587" xlink:href="#mcf47c0c60c"/></g></g><g id="text_36"><g style="fill:#262626" transform="translate(613.81125 223.766179)scale(0.11 -0.11)"><use xlink:href="#DejaVuSans-50"/><use x="63.623" xlink:href="#DejaVuSans-48"/><use x="127.246" xlink:href="#DejaVuSans-48"/><use x="190.869" xlink:href="#DejaVuSans-48"/></g></g></g><g id="ytick_11"><g id="line2d_37"><g><use style="fill:#262626;stroke:#262626;stroke-width:1.25" x="604.311" y="161.413" xlink:href="#mcf47c0c60c"/></g></g><g id="text_37"><g style="fill:#262626" transform="translate(613.81125 165.591748)scale(0.11 -0.11)"><use xlink:href="#DejaVuSans-50"/><use x="63.623" xlink:href="#DejaVuSans-53"/><use x="127.246" xlink:href="#DejaVuSans-48"/><use x="190.869" xlink:href="#DejaVuSans-48"/></g></g></g><g id="ytick_12"><g id="line2d_38"><g><use style="fill:#262626;stroke:#262626;stroke-width:1.25" x="604.311" y="103.238" xlink:href="#mcf47c0c60c"/></g></g><g id="text_38"><g style="fill:#262626" transform="translate(613.81125 107.417317)scale(0.11 -0.11)"><use xlink:href="#DejaVuSans-51"/><use x="63.623" xlink:href="#DejaVuSans-48"/><use x="127.246" xlink:href="#DejaVuSans-48"/><use x="190.869" xlink:href="#DejaVuSans-48"/></g></g></g><g id="ytick_13"><g id="line2d_39"><g><use style="fill:#262626;stroke:#262626;stroke-width:1.25" x="604.311" y="45.064" xlink:href="#mcf47c0c60c"/></g></g><g id="text_39"><g style="fill:#262626" transform="translate(613.81125 49.242886)scale(0.11 -0.11)"><use xlink:href="#DejaVuSans-51"/><use x="63.623" xlink:href="#DejaVuSans-53"/><use x="127.246" xlink:href="#DejaVuSans-48"/><use x="190.869" xlink:href="#DejaVuSans-48"/></g></g></g><g id="text_40"><g style="fill:#262626" transform="translate(654.924375 215.657813)rotate(-90)scale(0.12 -0.12)"><use xlink:href="#DejaVuSans-73"/><use x="29.492" xlink:href="#DejaVuSans-110"/><use x="92.871" xlink:href="#DejaVuSans-102"/><use x="128.076" xlink:href="#DejaVuSans-101"/><use x="189.6" xlink:href="#DejaVuSans-114"/><use x="228.463" xlink:href="#DejaVuSans-101"/><use x="289.986" xlink:href="#DejaVuSans-110"/><use x="353.365" xlink:href="#DejaVuSans-99"/><use x="408.346" xlink:href="#DejaVuSans-101"/><use x="469.869" xlink:href="#DejaVuSans-115"/><use x="521.969" xlink:href="#DejaVuSans-47"/><use x="555.66" xlink:href="#DejaVuSans-115"/><use x="607.76" xlink:href="#DejaVuSans-101"/><use x="669.283" xlink:href="#DejaVuSans-99"/><use x="724.264" xlink:href="#DejaVuSans-111"/><use x="785.445" xlink:href="#DejaVuSans-110"/><use x="848.824" xlink:href="#DejaVuSans-100"/></g></g></g><g id="line2d_40"><path d="M 79.856705 286.918125 L 112.583977 228.894948 L 145.31125 188.126306 L 178.038523 172.826431 L 210.765795 123.831925 L 243.493068 114.430937 L 276.220341 91.998877 L 308.947614 73.918264 L 341.674886 62.236838 L 374.402159 58.164628 L 407.129432 55.639857 L 439.856705 47.181295 L 472.583977 42.294643 L 505.31125 34.918125 L 538.038523 44.202764 L 570.765795 44.551811" clip-path="url(#p348d1728ed)" style="fill:none;stroke:#c1bc1f;stroke-linecap:round;stroke-width:1.5"/><g clip-path="url(#p348d1728ed)"><use style="fill:#c1bc1f;stroke:#c1bc1f" x="79.857" y="286.918" xlink:href="#mea063386d2"/><use style="fill:#c1bc1f;stroke:#c1bc1f" x="112.584" y="228.895" xlink:href="#mea063386d2"/><use style="fill:#c1bc1f;stroke:#c1bc1f" x="145.311" y="188.126" xlink:href="#mea063386d2"/><use style="fill:#c1bc1f;stroke:#c1bc1f" x="178.039" y="172.826" xlink:href="#mea063386d2"/><use style="fill:#c1bc1f;stroke:#c1bc1f" x="210.766" y="123.832" xlink:href="#mea063386d2"/><use style="fill:#c1bc1f;stroke:#c1bc1f" x="243.493" y="114.431" xlink:href="#mea063386d2"/><use style="fill:#c1bc1f;stroke:#c1bc1f" x="276.22" y="91.999" xlink:href="#mea063386d2"/><use style="fill:#c1bc1f;stroke:#c1bc1f" x="308.948" y="73.918" xlink:href="#mea063386d2"/><use style="fill:#c1bc1f;stroke:#c1bc1f" x="341.675" y="62.237" xlink:href="#mea063386d2"/><use style="fill:#c1bc1f;stroke:#c1bc1f" x="374.402" y="58.165" xlink:href="#mea063386d2"/><use style="fill:#c1bc1f;stroke:#c1bc1f" x="407.129" y="55.64" xlink:href="#mea063386d2"/><use style="fill:#c1bc1f;stroke:#c1bc1f" x="439.857" y="47.181" xlink:href="#mea063386d2"/><use style="fill:#c1bc1f;stroke:#c1bc1f" x="472.584" y="42.295" xlink:href="#mea063386d2"/><use style="fill:#c1bc1f;stroke:#c1bc1f" x="505.311" y="34.918" xlink:href="#mea063386d2"/><use style="fill:#c1bc1f;stroke:#c1bc1f" x="538.039" y="44.203" xlink:href="#mea063386d2"/><use style="fill:#c1bc1f;stroke:#c1bc1f" x="570.766" y="44.552" xlink:href="#mea063386d2"/></g></g><g id="patch_127"><path d="M 46.31125 299.518125 L 46.31125 22.318125" style="fill:none;stroke:#fff;stroke-linecap:square;stroke-linejoin:miter;stroke-width:1.25"/></g><g id="patch_128"><path d="M 604.31125 299.518125 L 604.31125 22.318125" style="fill:none;stroke:#fff;stroke-linecap:square;stroke-linejoin:miter;stroke-width:1.25"/></g><g id="patch_129"><path d="M 46.31125 299.518125 L 604.31125 299.518125" style="fill:none;stroke:#fff;stroke-linecap:square;stroke-linejoin:miter;stroke-width:1.25"/></g><g id="patch_130"><path d="M 46.31125 22.318125 L 604.31125 22.318125" style="fill:none;stroke:#fff;stroke-linecap:square;stroke-linejoin:miter;stroke-width:1.25"/></g><g id="text_41"><g style="fill:#262626" transform="translate(58.86233 286.918125)scale(0.12 -0.12)"><defs><path id="DejaVuSans-46" d="M 10.6875 12.40625 L 21 12.40625 L 21 0 L 10.6875 0 z"/></defs><use xlink:href="#DejaVuSans-49"/><use x="63.623" xlink:href="#DejaVuSans-52"/><use x="127.246" xlink:href="#DejaVuSans-50"/><use x="190.869" xlink:href="#DejaVuSans-49"/><use x="254.492" xlink:href="#DejaVuSans-46"/><use x="286.279" xlink:href="#DejaVuSans-51"/></g></g><g id="text_42"><g style="fill:#262626" transform="translate(157.044148 172.826431)scale(0.12 -0.12)"><use xlink:href="#DejaVuSans-50"/><use x="63.623" xlink:href="#DejaVuSans-52"/><use x="127.246" xlink:href="#DejaVuSans-48"/><use x="190.869" xlink:href="#DejaVuSans-49"/><use x="254.492" xlink:href="#DejaVuSans-46"/><use x="286.279" xlink:href="#DejaVuSans-57"/></g></g><g id="text_43"><g style="fill:#262626" transform="translate(255.225966 91.998877)scale(0.12 -0.12)"><use xlink:href="#DejaVuSans-51"/><use x="63.623" xlink:href="#DejaVuSans-48"/><use x="127.246" xlink:href="#DejaVuSans-57"/><use x="190.869" xlink:href="#DejaVuSans-54"/><use x="254.492" xlink:href="#DejaVuSans-46"/><use x="286.279" xlink:href="#DejaVuSans-54"/></g></g><g id="text_44"><g style="fill:#262626" transform="translate(353.407784 58.164628)scale(0.12 -0.12)"><use xlink:href="#DejaVuSans-51"/><use x="63.623" xlink:href="#DejaVuSans-51"/><use x="127.246" xlink:href="#DejaVuSans-56"/><use x="190.869" xlink:href="#DejaVuSans-55"/><use x="254.492" xlink:href="#DejaVuSans-46"/><use x="286.279" xlink:href="#DejaVuSans-52"/></g></g><g id="text_45"><g style="fill:#262626" transform="translate(451.589602 42.294643)scale(0.12 -0.12)"><use xlink:href="#DejaVuSans-51"/><use x="63.623" xlink:href="#DejaVuSans-53"/><use x="127.246" xlink:href="#DejaVuSans-50"/><use x="190.869" xlink:href="#DejaVuSans-51"/><use x="254.492" xlink:href="#DejaVuSans-46"/><use x="286.279" xlink:href="#DejaVuSans-56"/></g></g><g id="text_46"><g style="fill:#262626" transform="translate(549.77142 44.551811)scale(0.12 -0.12)"><use xlink:href="#DejaVuSans-51"/><use x="63.623" xlink:href="#DejaVuSans-53"/><use x="127.246" xlink:href="#DejaVuSans-48"/><use x="190.869" xlink:href="#DejaVuSans-52"/><use x="254.492" xlink:href="#DejaVuSans-46"/><use x="286.279" xlink:href="#DejaVuSans-52"/></g></g><g id="text_47"><g style="fill:#262626" transform="translate(549.77142 44.551811)scale(0.12 -0.12)"><use xlink:href="#DejaVuSans-51"/><use x="63.623" xlink:href="#DejaVuSans-53"/><use x="127.246" xlink:href="#DejaVuSans-48"/><use x="190.869" xlink:href="#DejaVuSans-52"/><use x="254.492" xlink:href="#DejaVuSans-46"/><use x="286.279" xlink:href="#DejaVuSans-52"/></g></g><g id="text_48"><g style="fill:#262626" transform="translate(265.623438 16.318125)scale(0.12 -0.12)"><use xlink:href="#DejaVuSans-79"/><use x="78.711" xlink:href="#DejaVuSans-110"/><use x="142.09" xlink:href="#DejaVuSans-108"/><use x="169.873" xlink:href="#DejaVuSans-105"/><use x="197.656" xlink:href="#DejaVuSans-110"/><use x="261.035" xlink:href="#DejaVuSans-101"/><use x="322.559" xlink:href="#DejaVuSans-32"/><use x="354.346" xlink:href="#DejaVuSans-112"/><use x="417.822" xlink:href="#DejaVuSans-101"/><use x="479.346" xlink:href="#DejaVuSans-114"/><use x="520.459" xlink:href="#DejaVuSans-102"/><use x="555.664" xlink:href="#DejaVuSans-111"/><use x="616.846" xlink:href="#DejaVuSans-114"/><use x="656.209" xlink:href="#DejaVuSans-109"/><use x="753.621" xlink:href="#DejaVuSans-97"/><use x="814.9" xlink:href="#DejaVuSans-110"/><use x="878.279" xlink:href="#DejaVuSans-99"/><use x="933.26" xlink:href="#DejaVuSans-101"/></g></g></g></g><defs><clipPath id="p348d1728ed"><rect width="558" height="277.2" x="46.311" y="22.318"/></clipPath></defs></svg>